<?xml version="1.0" encoding="UTF-8"?>
<svg id="Layer_2" data-name="Layer 2" xmlns="http://www.w3.org/2000/svg" viewBox="0 0 156.01 90.4">
  <g id="Layer_1-2" data-name="Layer 1">
    <g>
      <path d="M37.71,71.46c2.62-3.69,6.5-9.93,11.8-9.23,4.74.63,2.91,7.85.39,8.1-.66.06-1.42-.57-2.21-.09-1.44.89-2.98,9.26-1.49,10.21,3.78,2.39,5.24-4.54,6.87-6.55,1.28-1.58,4.11-3.21,6.16-3.15,1.5.04,2.96,1.48,3.78,1.41.7-.06,3.09-2.32,3.94-.99,1.22,1.93-5.56,10.77.14,9.51,1.78-.39,1.78-3.03,2.61-4.62,1.84-3.54,6.65-6.69,10.53-4.54,4.5,2.49,1.08,10.88-3.55,7.02.89-.89,1.68-2.33.22-3.03-3.25-1.57-5.42,6.24-.05,6.96,7.4.99,8.22-7.15,10.23-12.12.98-2.44,3.04-9.05,6.42-6.59.82,2.45-3.35,6.71-3.06,9.43,1.76-.25,2.73-2.12,4.74-2.35s3.81,1.17,3.9,3.22c.07,1.54-3.19,7.89,1.11,6.66,2.69-.77,3.33-10.02,6.99-9.94,3.72.08-3.79,11.55,1.89,9.86,2.28-.68,2.87-7.02,5.01-9.14,2-1.98,1.97.78,2.74,2.04.88.23,3.32-3.03,6.11-2.69,5.51.66.26,8.13,2.13,9.62,2.75,2.2,4.23-3.49,5.1-4.96,1.18-1.99,2.88-3.5,5.11-4.2,10.91-3.46,8.7,13.25-1.72,9.13.88,4.24,7.12,1.99,9.48,0,.73-.61,1.11-2.51,2.43-1.39.92,1.33-3.18,6.1-4.32,7.08-4.22,3.66-10.97,4.17-12.42-2.24-.51-.49-1.48,1.61-1.89,2.07-3.92,4.42-8.62,4.11-7.67-2.84.17-1.24,2.34-5.62.43-5.81-4.73-.48-4,6-4.47,8.67-.72,4.16-5.68,3.74-5.53-.36-2.5,3.53-8.13,5.15-8.45-.69-1.95,2.1-3.69,4.46-6.99,3.72-4.72-1.07.35-9.42-.74-10.98-3.15-1.56-4.67,3-4.98,5.41-.21,1.61.49,4.93-1.66,5.57-2.96.88-4.14-1.46-3.9-4.06-3.9,4.2-12.23,7.05-14.14-.34-.91.65-1.28,1.75-2.06,2.59-3.45,3.72-7.27,1.99-7.08-2.94-2.04,4.36-8.35,7.93-9.66,1.03-.67.01-2.5,2.94-4.06,3.53-5.01,1.89-6.58-2.58-6.02-6.71.25-1.81,2.86-7.12,2.16-8.2-.34-.4-.41-.41-.88-.17-2.99,1.56-3.39,12.33-5.86,13.44-1.06.48-3.87.4-4.13-1.03-.74-3.98,2.99-8.45,1.4-12.43l-1.05-.15c-1.37,7.13-5.48,17.51-14.26,17.21-7.23-.25-8.38-10.4-1.48-11.98.85.16.97,2.53,2.87,2.97,5.65,1.28,11.13-6.78,10.02-11.75-.67-2.98-5.45-1.83-5.71,1.39-.24,2.87,3.38,2.11,1.3,5.09-3.41,4.9-10.39.36-8.09-6.71,3.27-10.08,21.02-9.89,21.54,2.06ZM137.98,75.3c-.53-.85-3.31-.63-3.69,1.24-.66,3.27,5.38,1.47,3.69-1.24ZM57.26,76.36c-2.21.66-2.86,5.3.25,5.09s4.09-6.39-.25-5.09Z"/>
      <path d="M24.94,3.9c.7-3.1,8.14-5.78,9.18-2.07.23.83-.8,3.68-.91,4.99-.62,7.69,1.51,17.54,7.51,22.76-1.87,2.22-2.09,4.4-1.98,7.24.22,5.9,2.9,13.02,6.4,17.73.98,1.32,3.69,2.6,1.08,3.89-3.47,1.72-7.22-.9-9.73-3.14-1.69,3.03-5.99,4.85-9.12,2.88-2.07-1.31-.38-2.11.15-3.61,2.24-6.3.03-11.88-1.71-17.93-.51-.69-7.16-.3-8.47-.18-1.68,4.96-3.74,12.78-1.54,17.77.65,1.47,2.85,2.96.49,4.28s-5.66-.74-6.18-3.24h-.51c-1.84,1.7-6.08,4.67-8.55,3.37-2.71-1.43.47-3.07,1.46-4.24,4.13-4.91,4.86-11.02,6.9-16.88-1.35-.49-2.9.77-3.96,1.52-1.88-1.56-.73-3.76,1.21-4.62,0-.92-1.74-1.6-2-2.48-.23-.79-.33-2.89.78-2.87.89.02,3.98,2.84,5.66,2.04,1.26-7.29,7.34-19.05,5.03-26.15-.6-1.85-2.82-4.1.78-4.75,2.05-.37,3.59-.07,5.23,1.15.7.52,2.33,2.87,2.78,2.55ZM18.4,31.48h6.21l-3.27-12.07-2.93,12.07Z"/>
      <path d="M145.27,4.59c2.43-2.66,5-5.29,8.98-4.33,3.96.95.12,2.88-.9,3.97-5.77,6.18-12.81,17.57-7.08,25.65-2.25,2.1-4.59,3.18-5.9,6.19-1.88,4.32-1.19,12.6.86,16.86.95,1.97,4.06,4.38.6,5.63-4.21,1.52-6.27-1.3-9.14-3.63-1.81,2.81-5.46,4.84-8.82,3.63-.59-.21-1.72-1.09-1.71-1.73,0-.28,2.33-3.94,2.71-4.88,2.14-5.18,2.79-13.68-.99-18.21-1.27-1.51-3.1-2.4-4.43-3.85,1.06-2.04,1.85-2.64,2.04-5.11.56-7.37-3.42-14.18-8.11-19.5-1.39-1.57-6.02-4.28-1.65-5.08,3.94-.73,6.52,1.67,9.23,4.05.33,0,1.25-3.54,3.19-4.04,2.07-.53,5.11.36,5.89,2.43-.52,1-.86,2.05-.97,3.17-.42,4.02,1.5,12.91,2.58,17.06.32,1.25.56,2.75,1.38,3.78.54,0,1.48-4.17,1.66-4.88.94-3.77,2.65-10.91,2.58-14.59-.02-1.2-1.07-4.38-.8-4.99,3.3-3.47,8.1-2.63,8.81,2.4Z"/>
      <path d="M95.97,48.54c.08.26.91.73,1.25.76.71.08,4.58-.16,5.44-.28.81-.11,1.8-.54,2.52-.93.8-.44,1.63-1.93,2.53-1.3,2.26,2.23-1.07,5.06-1.07,5.88s3.44,3.83,1.05,5.87c-1.15.7-4.26-1.99-6.37-1.93-2.43.07-4.14,2.58-6.89,2.07-1.51-.28-3.26-2.59-4.15-3.77-1.83,2.71-4.41,4.76-7.84,3.7-3.91-1.2.62-3.21,1.53-5.19,1.49-3.23,1.3-13.94.53-17.55-.57-2.69-1.78-4.49-3.36-6.64,0-.7,1.57-1.72,2.03-2.46,2.44-3.96,2.32-15.31.8-19.66-.5-1.43-3.24-4.91-3.19-5.45.27-2.91,8.96-1.57,9.51,1.89.77,0,2.26-2.19,3.15-2.71,1.97-1.15,5.69-1.28,6.88.97-.9,1.71-2.39,3.01-3.14,4.84-1.79,4.41-1.74,16.17.79,20.23.57.91,1.9,1.71,1.81,2.67-.25.95-1.18,1.33-1.68,2.14-1.11,1.76-2.13,5.49-2.13,7.53v9.31Z"/>
      <path d="M59.07,3.55c.5-3.25,8.46-4.99,9.28-1.82.15.58-2.27,3.2-2.79,4.34-1.97,4.32-2.03,16.09.22,20.25.63,1.17,1.73,1.74,2.21,2.97-1.52,2.03-2.72,3.71-3.3,6.25s-1.02,8.58-.79,11.27c.06.73.29,1.45.41,2.17.26.36,5.68.11,6.56-.02,2.48-.36,3.1-2.06,3.95-2.28,2.37-.62,1.73,5.2-.22,5.99,1.61,1.51,2.93,4.44.77,5.99-.98.28-3-1.47-4.3-1.79-3.85-.93-5.34,2.27-7.92,1.99-1.65-.18-3.87-2.38-4.44-3.95h-.68c-1.31,2.82-4.72,4.95-7.84,3.52s0-2.49,1.12-3.86c2.76-3.4,2.1-15.09,1.1-19.38-.55-2.34-1.57-4.03-3.32-5.66,1.29-1.81,2.62-3.05,3.26-5.29,1.51-5.32,1.36-15.32-1.76-19.97-.8-1.19-2.91-2.1-1.01-3.48,2.64-1.91,7.58-.14,8.97,2.76h.51Z"/>
      <path d="M105.71,68.62c-.53-.56-.53-2.03-.36-2.77.75-3.39,7.55-3.4,6.4,1.58-.56,2.42-4.77,2.55-6.04,1.19Z"/>
    </g>
  </g>
</svg>