<?xml version="1.0" encoding="UTF-8"?>
<svg id="Layer_2" data-name="Layer 2" xmlns="http://www.w3.org/2000/svg" viewBox="0 0 209.43 46.56">
  <defs>
    <style>
      .cls-1 {
        fill: none;
      }

      .cls-2 {
        fill: #115fab;
      }
    </style>
  </defs>
  <g id="Layer_1-2" data-name="Layer 1">
    <g>
      <path class="cls-2" d="M209.43,11.9c0,1.3-1.02,2.32-2.34,2.32s-2.36-1.02-2.36-2.32,1.05-2.29,2.36-2.29,2.34,1.02,2.34,2.29ZM205.32,11.9c0,1.02.75,1.83,1.79,1.83s1.74-.81,1.74-1.81-.74-1.84-1.76-1.84-1.77.82-1.77,1.83ZM206.73,13.1h-.53v-2.29c.37-.07,1.25-.15,1.67.1.27.21.4.84-.25,1.03v.03c.52.19.38.82.59,1.13h-.57c-.07-.08-.11-.29-.18-.56-.07-.41-.38-.36-.73-.36v.92ZM206.74,11.8h.25c.29,0,.53-.1.53-.33,0-.21-.15-.35-.49-.35-.14,0-.24.01-.29.03v.66Z"/>
      <path class="cls-2" d="M16.26,5.14C7.28,5.14,0,12.42,0,21.4s7.28,16.26,16.26,16.26,16.26-7.28,16.26-16.26S25.24,5.14,16.26,5.14ZM16.26,35.55c-7.91,0-14.32-6.34-14.32-14.15s6.41-14.15,14.32-14.15,14.32,6.34,14.32,14.15-6.41,14.15-14.32,14.15Z"/>
      <path class="cls-2" d="M79.17,9.86h-18.54l-12.76,16.82h19.27c2.44,0,4.73-1.14,6.2-3.08l1.77-2.34c.57-.75.49-1.8-.19-2.46l-.13-.13c1.74-.39,3.28-1.39,4.35-2.8l1.83-2.34c1.14-1.51.07-3.67-1.82-3.67ZM66.22,20.79l-1.28,1.69c-.32.42-.81.66-1.34.66h-3.91l2.47-3.26h3.62c.46,0,.73.53.45.9ZM71.15,14.3l-1.03,1.36c-.34.45-.88.72-1.45.72h-3.84l2.29-3.02h3.58c.48,0,.75.55.46.93Z"/>
      <path class="cls-2" d="M107.23,9.86h-14.73c-2.47,0-4.8,1.16-6.29,3.13l-7.61,10.03c-1.14,1.5-.07,3.66,1.82,3.66h14.66c2.51,0,4.88-1.18,6.4-3.18l7.57-9.98c1.14-1.5.07-3.66-1.82-3.66ZM99.2,14.41l-5.98,7.88c-.41.54-1.05.86-1.73.86h-2.56c-.46,0-.71-.52-.44-.88l6.14-8.09c.39-.51.99-.81,1.62-.81h2.43c.54,0,.84.61.52,1.04Z"/>
      <path class="cls-2" d="M135.49,9.86h-18.43l-12.76,16.82h18.43s2.79-3.53,2.68-3.53-9.25,0-9.25,0l2.47-3.26h9.25s2.65-3.51,2.65-3.51h-9.23s2.29-3.02,2.29-3.02h9.15s2.76-3.51,2.76-3.51Z"/>
      <polygon class="cls-2" points="140.62 9.86 149.89 9.86 137.13 26.68 127.86 26.68 140.62 9.86"/>
      <polygon class="cls-2" points="164.66 26.68 157.34 26.68 155.46 18.27 149.08 26.68 142.92 26.68 155.68 9.86 162.84 9.86 164.75 18.34 171.18 9.86 177.42 9.86 164.66 26.68"/>
      <path class="cls-1" d="M192.71,13.37h-2.51c-.66,0-1.28.31-1.67.83l-6.06,7.99c-.3.39-.02.96.47.96h2.54c.63,0,1.23-.3,1.61-.8l3.6-4.75h-1.82l1.56-1.95h1.75l1.01-1.33c.29-.39.02-.95-.47-.95Z"/>
      <path class="cls-2" d="M192.17,15.65h9.29l1.53-2.02c1.17-1.55.07-3.77-1.87-3.77h-14.53c-2.51,0-4.87,1.17-6.39,3.17l-7.5,9.89c-1.17,1.54-.07,3.75,1.86,3.75h14.4c2.61,0,5.07-1.22,6.64-3.3l1.69-2.23h2.06l2.7-3.54h-11.37l-3.6,4.75c-.38.5-.98.8-1.61.8h-2.54c-.49,0-.77-.56-.47-.96l6.06-7.99c.4-.52,1.02-.83,1.67-.83h2.51c.49,0,.76.56.47.95l-1.01,1.33Z"/>
      <path class="cls-2" d="M56.45,32.92c-11.86.31-22.67.77-28.24,1.15l-5.92-11.14c10.88,10.54,34.55,8.7,34.16,9.99Z"/>
      <path class="cls-2" d="M6.32,42.26c-2.02-1.79-.62-7.64,4.08-15.41C20.21,10.67,33.65,0,33.65,0c-10.3,6.19-16.17,12.35-21.16,18.49C2.2,31.16-1.17,43.08,3.18,46.14c1.83,1.29,8.1-.12,13.09-7.66-2.83,2.52-7.73,5.75-9.95,3.79Z"/>
    </g>
  </g>
</svg>