<?xml version="1.0" encoding="UTF-8"?>
<svg id="Layer_2" data-name="Layer 2" xmlns="http://www.w3.org/2000/svg" viewBox="0 0 184 61.31">
  <defs>
    <style>
      .cls-1 {
        fill: none;
      }

      .cls-1, .cls-2 {
        stroke: #010101;
        stroke-miterlimit: 10;
      }

      .cls-2, .cls-3 {
        fill: #010101;
      }
    </style>
  </defs>
  <g id="Layer_1-2" data-name="Layer 1">
    <g>
      <g>
        <polygon class="cls-2" points="34.21 .5 .5 .5 .5 50.83 34.31 50.83 34.31 40.41 12.09 40.49 12.01 30.77 34.18 30.66 34.07 20.54 11.9 20.51 11.85 10.85 34.31 10.77 34.21 .5"/>
        <polyline class="cls-1" points="34.31 10.77 45.36 10.77 45.36 60.81 11.88 60.81 11.96 50.83"/>
      </g>
      <polygon class="cls-3" points="55.75 19.6 49.39 19.6 49.33 29.18 55.99 29.22 55.99 27.58 51.13 27.55 51.16 24.91 55.52 24.92 55.54 23.47 51.15 23.5 51.15 21.16 55.75 21.17 55.75 19.6"/>
      <rect class="cls-3" x="57.4" y="18.99" width="1.71" height="10.24"/>
      <path class="cls-3" d="M63.79,22.41c-3.52,0-3.37,3.7-3.37,3.7,0,0,.12,3.26,3.37,3.22,0,0,2.06.07,2.96-1.28l-1.06-.89s-.3.77-1.68.78c-1.38.01-1.77-.92-1.84-1.48h4.86s.29-4.05-3.24-4.05ZM62.17,25.21c.03-.5.43-1.54,1.75-1.55,1.31-.02,1.49,1.55,1.49,1.55h-3.24Z"/>
      <path class="cls-3" d="M68.44,22.67h1.53v.99s.55-1.23,2.08-1.24,1.89,1.18,1.89,1.18c0,0,.68-1.14,2.16-1.14s2.42.95,2.44,2.15,0,4.6,0,4.6l-1.67.03.02-3.84s.03-1.65-1.19-1.65-1.43,1.53-1.43,1.53l.04,3.96h-1.66l-.04-4.28s-.14-1.18-1.07-1.17-1.44.91-1.48,1.4,0,4.05,0,4.05h-1.67l.05-6.56Z"/>
      <path class="cls-3" d="M83.3,22.41c-3.53,0-3.38,3.7-3.38,3.7,0,0,.12,3.26,3.38,3.22,0,0,2.06.07,2.96-1.28l-1.06-.89s-.3.77-1.68.78c-1.38.01-1.77-.92-1.84-1.48h4.86s.29-4.05-3.24-4.05ZM81.68,25.21c.03-.5.43-1.54,1.75-1.55,1.31-.02,1.49,1.55,1.49,1.55h-3.24Z"/>
      <path class="cls-3" d="M87.68,22.67v6.56h1.66v-3.81s0-1.54,1.46-1.57c0,0,1.19-.18,1.21,1.21s0,4.17,0,4.17h1.61v-4.5c.06-.05-.03-2.32-2.2-2.26,0,0-1.48-.11-2.11,1.19v-.98s-1.63,0-1.63,0Z"/>
      <path class="cls-3" d="M98.73,29.07c-.66.24-1.05.22-1.05.22-2.01.03-2.11-1.77-2.11-1.77l.02-3.52h-1.16v-1.32h1.16v-1.88h1.58v1.83h1.62v1.29h-1.6s.02,2.34-.02,3.36,1.56.62,1.56.62v1.16"/>
      <path class="cls-3" d="M103.39,24.45l1.09-.98s-.97-1.1-2.44-1.02-2.65.66-2.65,2.16,2.08,1.82,2.08,1.82c0,0,1.3.05,1.34.88s-1.03.76-1.03.76c0,0-1.22-.07-1.63-.88l-1.1,1.06s1.17,1.16,2.69,1.07,2.73-.61,2.71-2.07c-.02-.98-1.09-1.61-1.79-1.91-.26-.11-.54-.2-.82-.24-.32-.04-.86-.2-.85-.72.01-.75.99-.69.99-.69,0,0,1.01-.04,1.43.75Z"/>
      <path class="cls-3" d="M111.91,22.44c-3.48-.06-3.51,3.45-3.51,3.45,0,0,.04,3.48,3.56,3.43,3.47-.05,3.49-3.28,3.49-3.38,0,0-.07-3.44-3.54-3.5ZM111.96,27.98c-1.82.04-1.8-2.14-1.8-2.14,0,0-.04-1.96,1.75-2.01,1.79-.05,1.85,1.89,1.85,1.89,0,0,.02,2.22-1.8,2.26Z"/>
      <path class="cls-3" d="M115.91,22.71h1.22v-1.65s-.01-2.67,3.39-2.17v1.48s-1.83-.35-1.82.79.01,1.56.01,1.56h1.52l-.03,1.35h-1.47l.02,5.13h-1.69l.02-5.13h-1.17v-1.35Z"/>
      <polygon class="cls-3" points="131.18 19.6 124.82 19.6 124.76 29.18 131.42 29.22 131.42 27.58 126.56 27.55 126.59 24.91 130.96 24.92 130.98 23.47 126.58 23.5 126.58 21.16 131.19 21.17 131.18 19.6"/>
      <path class="cls-3" d="M146.89,28.99v-6.56h-1.66v3.81s0,1.54-1.46,1.57c0,0-1.19.18-1.21-1.21s0-4.17,0-4.17h-1.61v4.5c-.06.05.03,2.32,2.2,2.26,0,0,1.48.11,2.11-1.19v.98s1.63,0,1.63,0Z"/>
      <path class="cls-3" d="M165.51,29.07c-.66.24-1.05.22-1.05.22-2.01.03-2.11-1.77-2.11-1.77l.02-3.52h-1.16v-1.32h1.16v-1.88h1.58v1.83h1.62v1.29h-1.6s.02,2.34-.02,3.36,1.56.62,1.56.62v1.16h0Z"/>
      <path class="cls-3" d="M173.08,22.38c-3.48-.06-3.51,3.45-3.51,3.45,0,0,.04,3.48,3.56,3.43,3.47-.05,3.49-3.28,3.49-3.38,0,0-.07-3.44-3.54-3.5ZM173.13,27.92c-1.82.04-1.8-2.14-1.8-2.14,0,0-.04-1.96,1.75-2.01,1.79-.05,1.85,1.89,1.85,1.89,0,0,.03,2.22-1.8,2.26Z"/>
      <path class="cls-3" d="M178.04,22.58v6.56h1.66v-3.81s0-1.54,1.46-1.57c0,0,1.19-.18,1.21,1.21s0,4.17,0,4.17h1.61v-4.5c.06-.05-.03-2.32-2.2-2.26,0,0-1.48-.11-2.11,1.19v-.98s-1.63,0-1.63,0Z"/>
      <path class="cls-3" d="M137.48,19.02l.04,4.46c-.71-.97-1.74-.98-2.15-1.01-.4-.04-3.14.54-3.16,3.35-.02,2.82,1.86,3.47,3.19,3.53,1.33.06,2.14-1.2,2.14-1.2v1.01l1.59.03.04-10.18h-1.69ZM137.55,25.86c.01.39-.12,2.1-1.86,2.1s-1.84-2.1-1.84-2.1c0,0-.2-2.07,1.84-2.1,2.03-.04,1.86,2.1,1.86,2.1Z"/>
      <path class="cls-3" d="M153.06,24.5l1.15-1.01s-1-1.1-2.46-1.05-3.52,1.03-3.48,3.42,1.91,3.41,3.57,3.5,2.28-.93,2.28-.93l-.98-1.11s-.56.72-1.4.64-1.79-.76-1.79-2.06.81-2.04,1.78-2.06,1.33.67,1.33.67Z"/>
      <path class="cls-3" d="M160.61,29.26l-.04-4.17s-.01-2.58-2.87-2.66c0,0-1.88-.03-2.75,1.09l.9,1.07s.63-.94,1.76-.9c1.14.04,1.32.82,1.37,1.29,0,0-4.47-.1-4.39,2.46.07,2.55,3.59,1.77,3.59,1.77,0,0,.57-.17.8-.85l-.03.94,1.65-.03ZM158.16,27.96s-1.91.43-1.86-.73c.05-1.17,2.71-1.08,2.71-1.08-.05,1.67-.85,1.81-.85,1.81Z"/>
      <polygon class="cls-3" points="166.58 22.73 166.58 29.18 168.22 29.13 168.22 22.68 166.58 22.73"/>
      <circle class="cls-3" cx="167.31" cy="20.44" r="1.07"/>
      <g>
        <path class="cls-3" d="M97.44,40.95c-.32.3-.8.45-1.44.45h-1.15v2.43h-.57v-5.7h1.72c.64,0,1.12.15,1.44.45.32.3.48.7.48,1.19s-.16.88-.48,1.18ZM97.33,39.77c0-.38-.11-.67-.32-.86-.21-.2-.55-.29-1.02-.29h-1.15v2.3h1.15c.89,0,1.34-.38,1.34-1.14Z"/>
        <path class="cls-3" d="M103.98,42.48h-2.59l-.5,1.35h-.6l2.08-5.63h.64l2.07,5.63h-.6l-.5-1.35ZM103.81,42.01l-1.13-3.08-1.13,3.08h2.25Z"/>
        <path class="cls-3" d="M110.83,43.83l-1.41-2.38h-1.05v2.38h-.57v-5.7h1.71c.64,0,1.12.15,1.45.46.33.3.49.7.49,1.2,0,.41-.12.77-.35,1.06-.24.29-.59.48-1.05.57l1.47,2.42h-.68ZM108.37,40.99h1.15c.45,0,.78-.11,1.01-.33.23-.22.34-.51.34-.87s-.11-.66-.33-.87c-.22-.2-.56-.31-1.03-.31h-1.14v2.37Z"/>
        <path class="cls-3" d="M117.72,38.13v.47h-1.58v5.23h-.57v-5.23h-1.59v-.47h3.74Z"/>
        <path class="cls-3" d="M124.73,43.83h-.57l-3.16-4.8v4.8h-.57v-5.7h.57l3.16,4.79v-4.79h.57v5.7Z"/>
        <path class="cls-3" d="M128.4,38.6v2.13h2.16v.47h-2.16v2.16h2.41v.47h-2.98v-5.71h2.98v.47h-2.41Z"/>
        <path class="cls-3" d="M136.77,43.83l-1.41-2.38h-1.05v2.38h-.57v-5.7h1.71c.64,0,1.12.15,1.45.46.33.3.49.7.49,1.2,0,.41-.12.77-.35,1.06-.24.29-.59.48-1.05.57l1.47,2.42h-.68ZM134.3,40.99h1.15c.45,0,.78-.11,1.01-.33.23-.22.34-.51.34-.87s-.11-.66-.33-.87c-.22-.2-.56-.31-1.03-.31h-1.14v2.37Z"/>
        <path class="cls-3" d="M141.06,43.69c-.29-.13-.51-.31-.67-.55-.16-.23-.25-.49-.26-.78h.6c.03.28.15.52.37.73.22.21.54.31.95.31.39,0,.69-.1.92-.3.23-.2.34-.45.34-.75,0-.24-.06-.44-.19-.59-.12-.15-.28-.26-.46-.33-.19-.07-.44-.15-.77-.24-.38-.1-.68-.2-.9-.3s-.41-.25-.57-.46-.24-.49-.24-.84c0-.29.08-.56.23-.79.15-.23.37-.41.64-.54.28-.13.6-.2.95-.2.53,0,.95.13,1.28.39.32.26.51.59.56,1h-.62c-.04-.23-.17-.44-.38-.62s-.51-.27-.88-.27c-.34,0-.63.09-.86.27s-.34.43-.34.75c0,.24.06.43.19.58.12.15.28.26.47.33s.44.16.76.24c.37.1.67.21.9.31s.42.25.58.46c.16.21.24.48.24.83,0,.27-.07.52-.21.76-.14.24-.35.43-.63.58-.28.15-.61.22-1,.22s-.71-.07-.99-.2Z"/>
      </g>
    </g>
  </g>
</svg>