<?xml version="1.0" encoding="UTF-8"?>
<svg id="Layer_2" data-name="Layer 2" xmlns="http://www.w3.org/2000/svg" viewBox="0 0 187.51 36.36">
  <defs>
    <style>
      .cls-1 {
        fill: #231f20;
      }

      .cls-2 {
        fill: #fff;
      }

      .cls-3 {
        fill: #ed1c24;
      }

      .cls-4 {
        fill: none;
      }

      .cls-5 {
        fill: #bbbdbf;
      }

      .cls-6 {
        fill: #98989a;
      }

      .cls-7 {
        fill: #0066b3;
      }

      .cls-8 {
        fill: #0e6434;
      }
    </style>
  </defs>
  <g id="Layer_1-2" data-name="Layer 1">
    <g>
      <polygon class="cls-2" points="40.72 18.57 44.08 4.47 53.77 4.57 52.88 8.45 48.2 8.42 47.9 10.25 52.64 10.39 51.86 13.89 47.04 13.83 45.81 18.57 40.72 18.57"/>
      <polygon class="cls-2" points="55.2 4.6 60.18 4.6 56.95 18.81 51.89 18.81 55.2 4.6"/>
      <path class="cls-2" d="M73.23,8.51c0-1.91-1.52-3.4-2.83-3.86-1.87-.65-8.85-.04-8.85-.04l-3.28,14.1,4.88-.02,1.22-4.69,1.69,4.82,5.75-.1-2.67-5.28c3.39-.67,4.08-3.52,4.09-4.92ZM64.88,11.29l.87-3.43s2.24-.27,2.16,1.19c-.13,2.3-3.03,2.24-3.03,2.24Z"/>
      <path class="cls-2" d="M83.21,8.54l1.09-3.73s-1.35-.49-3.35-.51-7.28.75-7.23,4.99c.04,3.03,3.57,3.96,3.57,3.96,0,0,1.45.28,1.37,1.21s-1.82.75-1.82.75c0,0-2.4-.1-3.37-.81l-1.25,3.92s2.16.71,4.38.69,6.97-1,7.17-5.15c.11-2.24-2.23-3.59-3.39-4.12-.3-.14-.62-.24-.94-.32s-.75-.26-.74-.61c.02-.54.77-.87,1.68-.87s2.83.61,2.83.61Z"/>
      <polygon class="cls-8" points="40.72 21.58 45.86 21.58 45.13 30.46 48.42 21.72 54.26 21.72 53.77 30.19 56.95 21.69 61.82 21.58 55.71 35.79 49.82 35.79 50.25 26.91 46.91 35.79 40.91 35.79 40.72 21.58"/>
      <path class="cls-8" d="M72.23,21.58h-7.48l-7.64,14.21h5.3l1.24-2.18,4.09-.08.18,2.26h5.55l-1.24-14.21ZM67.6,29.98h-2.31l2.31-5.33v5.33Z"/>
      <polygon class="cls-8" points="106.77 21.58 111.74 21.58 108.52 35.79 103.46 35.79 106.77 21.58"/>
      <path class="cls-8" d="M83.42,25.66h5.19s1.28-4.52-5.35-4.45c-6.63.07-7.71,3.61-7.7,5.69,0,2.08,2.19,2.93,3.57,3.33s3.22.6,3.24,1.52-.73,1.35-1.53,1.32-1.23-.36-1.22-1.53l-5.41-.05s-.17.4-.13,1.23.32,3.58,5.67,3.57,7.98-2.04,8.24-5.82c.24-3.43-6.02-4.12-6.02-4.12,0,0-.97-.08-.98-.85s.83-1,1.39-1,.97.2,1.04,1.17Z"/>
      <polygon class="cls-8" points="90.88 21.58 96.53 21.58 95.46 26.45 97.99 26.45 99 21.58 104.53 21.58 101.47 35.94 95.91 35.94 97.07 30.67 94.47 30.71 93.41 35.79 87.88 35.79 90.88 21.58"/>
      <polygon class="cls-8" points="113.66 21.66 120.53 21.58 121.63 30.05 123.46 21.66 128.06 21.68 125.06 35.94 118.29 35.87 117.03 27.27 115.18 35.94 110.59 35.94 113.66 21.66"/>
      <path class="cls-8" d="M135.34,27.8h7.32l-1.53,7.6s-4.83.96-6.82.96-7.16-.55-6.94-5.71,3.98-9.46,10.31-9.43,5.32,4.74,5.32,4.74l-5.18.05s-.05-1.17-1.26-1.2-2.44,1.25-2.74,2.52-.67,3.59-.67,3.59c0,0-.38,1.68,1.66,1.87s1.99-2.14,1.99-2.14l-1.96-.08.54-2.77Z"/>
      <polygon class="cls-8" points="144.48 21.62 157.19 21.62 156.4 25.55 152.99 25.55 150.67 36.01 145.04 35.94 147.36 25.44 143.75 25.46 144.48 21.62"/>
      <path class="cls-8" d="M164.66,21.07c-6.03-.08-9.45,5.05-9.39,9.46.05,4.41,2.47,5.83,6.15,5.83s8.86-2.08,9.22-9.92c0,0,.05-5.29-5.98-5.37ZM164.59,29.48s-.99,3.5-2.57,3.25c-1.36-.21-1.06-2.64-1.06-2.64,0,0,.49-5.38,2.91-5.28,1.9.08.72,4.66.72,4.66Z"/>
      <polygon class="cls-8" points="173.11 21.62 179.97 21.54 181.08 30 182.91 21.62 187.51 21.63 184.51 35.89 177.74 35.83 176.47 27.23 174.63 35.89 170.04 35.89 173.11 21.62"/>
      <path class="cls-5" d="M5.58,16.32l-.27,1.42,2.71-1.16c-.17-.36-.31-.74-.41-1.13l-2.03.87Z"/>
      <g>
        <path class="cls-1" d="M29.14,23.31h-.2v-.07h.5v.07h-.2v.6h-.09v-.6Z"/>
        <path class="cls-1" d="M30.05,23.61c0-.09-.01-.21,0-.29h0c-.02.08-.05.16-.08.25l-.12.33h-.07l-.11-.32c-.03-.1-.06-.18-.08-.26h0c0,.08,0,.2-.01.3l-.02.29h-.08l.05-.67h.11l.11.32c.03.08.05.16.07.23h0c.02-.07.04-.14.07-.23l.12-.32h.11l.04.67h-.08l-.02-.29Z"/>
      </g>
      <g>
        <path class="cls-6" d="M18.59,7.35c.68,0,1.34.06,1.97.18l1.5-1.56c-1.05-.36-2.23-.57-3.47-.57-2.12,0-4.04.59-5.46,1.55l1.31,1.24c1.21-.53,2.63-.84,4.16-.84Z"/>
        <path class="cls-2" d="M18.59,5.4c1.24,0,2.42.2,3.47.57l1.63-1.7c-1.52-.6-3.26-.94-5.1-.94-2.75,0-5.26.76-7.17,2l1.71,1.62c1.42-.96,3.35-1.55,5.46-1.55Z"/>
        <path class="cls-6" d="M10.76,12.04c.14-.56.39-1.09.74-1.58l-.66-.66c-.13.41-.2.83-.2,1.27,0,.33.04.66.12.98Z"/>
        <path class="cls-6" d="M5.91,15.72l-.28,1.43,2.75-1.18c-.17-.36-.21-.84-.31-1.23l-2.16.98Z"/>
        <polygon class="cls-6" points="3.97 .16 0 21.92 1.88 22.07 5.81 0 3.97 .16"/>
        <path class="cls-3" d="M17.33,12.68v-1.76l-2.89-2.74-1.31-1.24-1.71-1.62L5.81,0,1.87,22.07l8.33-3.66c-.83-.73-1.42-1.51-1.85-2.43l-2.71,1.16.27-1.42,1.76-9.16.15-.77,1.45,1.46,1.87,1.88.8.81,3.29,2.84-3.2,1.47c.83.83,1.81,1.56,3.14,1.97l3.99-1.79-1.82-1.74Z"/>
        <path class="cls-4" d="M27.31,6.56c1.36,1.34,2.16,3.01,2.16,4.81,0,.33-.03.66-.08.98.05.32.08.65.08.98,0,1.38-.47,2.68-1.3,3.81l5.42-5.65-5.73-5.5-.55.58Z"/>
        <path class="cls-4" d="M24.64,9.34l-2.24,2.34,2.73,2.63c.65-.66,1.1-1.43,1.3-2.26-.25-1.02-.88-1.95-1.79-2.71Z"/>
        <path class="cls-6" d="M26.43,12.04c.08-.32.12-.64.12-.98,0-.98-.36-1.91-.98-2.72l-.95.98c.91.76,1.56,1.69,1.8,2.71Z"/>
        <path class="cls-6" d="M28.21,21.36l-2.24-2.16c-.36.25-.74.47-1.14.68l3.39,3.25,10.45-10.89v-1.76s-10.45,10.87-10.45,10.87Z"/>
        <path class="cls-6" d="M20.59,14.05l-1.85-1.78-1.41-1.35v1.76s1.98,1.91,1.98,1.91l1.9,1.83c.48-.12.95-.27,1.38-.45l-2-1.92Z"/>
        <polygon class="cls-6" points="27.86 4.2 26.37 5.75 24.73 7.46 23.61 8.63 21.49 10.83 22.38 11.69 24.64 9.34 25.58 8.35 27.31 6.56 27.86 5.98 33.61 11.49 34.5 10.57 27.86 4.2"/>
        <path class="cls-2" d="M27.31,6.56l-1.73,1.8c.62.81.97,1.73.97,2.71,0,.33-.04.66-.12.98-.2.83-.65,1.59-1.3,2.26-.66.68-1.53,1.25-2.53,1.67-.43.18-.9.33-1.38.45-.82.2-1.7.32-2.62.32-1.13,0-2.2-.17-3.18-.47-1.33-.41-2.46-1.08-3.3-1.91-.3-.3-.57-.63-.78-.97-.27-.42-.46-.87-.58-1.34-.08-.32-.12-.64-.12-.98,0-.44.07-.86.2-1.27l-1.98-2.01c-.73,1.08-1.14,2.29-1.14,3.58,0,.33.03.66.08.98.13.78.41,1.52.81,2.21.2.35.44.68.71,1,.7.84,1.6,1.58,2.65,2.18,1.83,1.04,4.13,1.66,6.62,1.66,1.74,0,3.39-.3,4.85-.84.44-.16.87-.35,1.27-.55.94-.48,1.78-1.06,2.47-1.72,1.17-1.12,1.95-2.47,2.19-3.94.05-.32.08-.65.08-.98,0-1.8-.8-3.47-2.16-4.81Z"/>
        <path class="cls-7" d="M20.58,14.06l1.99,1.92c1-.42,1.88-.98,2.54-1.66l-2.74-2.63-.89-.85,2.11-2.2,1.12-1.16,1.64-1.71,1.49-1.55,6.62,6.36-.89.93-5.42,5.65c-.57.78-1.31,1.48-2.19,2.08l2.23,2.15,10.45-10.88L27.77.04l-4.08,4.25-1.63,1.7-1.5,1.56-3.23,3.38,3.25,3.14Z"/>
        <path class="cls-6" d="M11.38,13.44s.05.09.06.1c.16.25.38.49.59.72l3.25-1.5-7.47-6.96-.2,1.08,5.86,5.8-2.08.77Z"/>
        <path class="cls-6" d="M29.47,11.37c0,.33-.03.66-.08.98-.24,1.47-1.02,2.82-2.19,3.94-.7.67-1.53,1.25-2.47,1.72-.41.21-.83.39-1.27.55-1.46.54-3.11.84-4.85.84-2.49,0-4.79-.62-6.62-1.66-1.06-.6-1.96-1.34-2.65-2.18-.27-.32-.5-.66-.71-1-.41-.69-.68-1.43-.81-2.21-.05-.32-.08-.65-.08-.98,0-.1,0-.21.01-.31,0,0,0-.01,0-.02-.05.32,0,1.95,0,2.28,0,.52.07,1.04.2,1.53.1.39.24.76.41,1.13.44.92,1.09,1.76,1.92,2.5,2,1.76,4.99,2.88,8.34,2.88,2.32,0,4.48-.54,6.24-1.46.4-.21.78-.44,1.14-.68.88-.6,1.62-1.3,2.19-2.09.83-1.13,1.3-2.43,1.3-3.81,0-.29.03-1.67,0-2.22,0-.07,0,.17,0,.26Z"/>
      </g>
      <g>
        <path class="cls-2" d="M44,4.36h9.76l-.92,3.76h-4.68l-.46,1.97h4.88l-.85,3.48h-4.82l-1.16,4.95h-5.04l3.28-14.16Z"/>
        <path class="cls-2" d="M55.09,4.36h5.04l-3.28,14.16h-5.04l3.28-14.16Z"/>
        <path class="cls-2" d="M61.45,4.44l.32-.04c1.62-.19,3.63-.32,4.74-.32,1.85,0,3.28.21,4.37.66,1.39.57,2.22,1.83,2.22,3.33,0,1.29-.44,2.53-1.27,3.48-.72.83-1.36,1.23-2.71,1.63l-.32.11c.14.11.19.15.25.21.39.45,1.57,2.74,2.57,5.01h-5.55c-.72-2.02-.93-2.55-1.87-4.84l-1.11,4.84h-4.9l3.26-14.08ZM65.17,11.11c1.62,0,2.75-.96,2.75-2.31,0-.72-.53-1.08-1.57-1.08-.3,0-.46.02-.79.09l-.76,3.27c.16.02.19.04.37.04Z"/>
        <path class="cls-2" d="M85.07,4.36h12.23l-.85,4.1h-3.63l-2.41,10.06h-5.04l2.41-10.06h-3.94l1.23-4.1Z"/>
        <path class="cls-2" d="M92.78,15.99c.68,0,1.23.55,1.23,1.23s-.55,1.23-1.23,1.23-1.23-.54-1.23-1.23.54-1.23,1.23-1.23ZM92.78,18.3c.6,0,1.08-.48,1.08-1.07s-.48-1.08-1.08-1.08-1.07.48-1.07,1.07.48,1.08,1.07,1.08ZM92.3,16.59c.06,0,.07,0,.19-.02.12,0,.18-.01.23-.01.4,0,.6.16.6.46,0,.18-.08.29-.24.35h-.02s.02.02.02.03c.04.04.19.25.3.45h-.46c-.1-.18-.12-.22-.24-.42v.42h-.39v-1.25ZM92.74,17.18c.11,0,.17-.05.17-.15s-.06-.15-.17-.15c-.02,0-.03,0-.05,0v.29s.03,0,.05,0Z"/>
        <path class="cls-2" d="M72.12,18.16c1.42.42,2.97.66,4.42.66,1.97,0,3.47-.45,4.76-1.38,1.43-1.02,2.36-2.59,2.36-4.01,0-.96-.42-1.83-1.16-2.44-.58-.47-1.18-.83-2.41-1.4l-.99-.47c-.32-.17-.49-.34-.49-.53,0-.51.65-.89,1.53-.89.66,0,1.44.19,2.94.68l1.03-3.83c-1.12-.3-2.21-.46-3.3-.46-4.12,0-7.28,2.25-7.28,5.16,0,1.53,1.02,2.61,3.56,3.8,1.2.55,1.41.7,1.41,1.08,0,.57-.62.93-1.64.93-.9,0-2.06-.28-3.63-.85h0s-1.11,3.95-1.11,3.95Z"/>
      </g>
    </g>
  </g>
</svg>