<?xml version="1.0" encoding="UTF-8"?>
<svg id="Layer_2" data-name="Layer 2" xmlns="http://www.w3.org/2000/svg" xmlns:xlink="http://www.w3.org/1999/xlink" viewBox="0 0 107.07 94.82">
  <defs>
    <style>
      .cls-1 {
        fill: #231f20;
      }

      .cls-2, .cls-3 {
        fill: #fff;
      }

      .cls-3, .cls-4 {
        fill-rule: evenodd;
      }

      .cls-5 {
        fill: none;
      }

      .cls-6, .cls-4 {
        fill: #020202;
      }

      .cls-7 {
        clip-path: url(#clippath);
      }
    </style>
    <clipPath id="clippath">
      <rect class="cls-5" width="107.07" height="94.82"/>
    </clipPath>
  </defs>
  <g id="Layer_1-2" data-name="Layer 1">
    <rect class="cls-2" x="1.48" y="1.9" width="104.1" height="63.38"/>
    <g>
      <polygon class="cls-4" points="22.64 11.47 22.73 11.82 22.73 12.13 22.64 12.31 22.5 12.35 22.46 12.39 22.28 12.53 22.14 12.7 21.92 12.88 21.69 13.01 21.33 13.05 20.79 12.92 20.38 12.83 20.06 12.7 19.97 12.57 19.97 12.39 20.02 12.17 20.15 12 20.33 11.65 20.47 11.34 20.83 11.12 21.33 10.94 21.92 10.94 22.32 11.12 22.64 11.47"/>
      <path class="cls-4" d="M47,15.98l-.85-.93-.93-.84-.8-.84-.76-.66-.67-.53-.4-.26-.18-.18-.71-.79-.76-.58-.8-.53-.89-.53-.94-.44-.98-.35-.98-.36-1.02-.35-1.16-.35-1.29-.36-1.29-.35-1.3-.35-1.16-.31-.93-.22-.67-.13-.08-.02.04-.08-.09-.13-.13-.22-.18-.22-.31-.26-.27-.18-.4-.18-.48-.13h-.54l-.57.18-.4.31-.31.35-.18.44-.09.35-.04.35v.27l-.31.08-.53.09-.58.13-.62.27-.67.22-.62.31-.44.35-.27.35-.4.92-.57,1.01-.49.75-.22.35-.58.14-.49.26-.4.22-.35.22-.36.31-.22.31-.31.22-.26.22-.31.17-.4.18-.4.17-.4.14-.36.13-.35.04-.31.09h-.44l-.4.18-.36.35-.18.57.05.57.31.31.27.13h.13l.35-.17.18-.18.09-.27v-.04l.71.22-.18.66-.31.35-.27.18h-.13l-.35.31-.18.48.09.57.35.66.45.49.4.17.26.05h.05l.22.48.35.26.4.4.67.44.79.35.4-.39.14-.58v-.96l.13-.36.18-.22.31-.17h.53l.71.22.75.31.58.04.35-.13.18-.22.05-.35v-.31l-.05-.35-.04-.22-.18-.53v-.62l.18-.57.57-.62.71-.21.76.21.71.45.66.66.58.7.49.57.31.48.09.18.84.92.09.66-.36.36-.66.17-.85.09-.79-.09-.67-.04-.22-.05-.62-.08-.44.26-.36.44-.27.66-.35.57-.53.31-.45.13h-.88l-.4.13-.31.18-.09.26v.31l.04.31.05.17v.22l.13.36.27.52.53.53.4.18.49.13h.53l.44-.04.4-.09.36-.05.3-.13h.05l4.26-2.59.93-.71.93-.7.89-.7.79-.71.58-.83.44-.88.18-.97-.27-1.1-.22-1.01-.4-.88-.53-.84-.57-.66-.58-.57-.53-.4-.36-.26-.13-.09.35-1.14h.09l.05.04.04.12.76.57,1.02.8.98,1.06.89,1.45.45,1.59-.05,1.77-.76,2.03-1.78,2.16-.31.4-.35.27-.36.3-.36.31-.35.27-.4.26-.36.27-.4.26.26.58.36.62.31.57.27.53.94-1.54.93-1.42,1.07-1.23,1.16-1.15,1.2-.98,1.2-.92,1.3-.75,1.33-.58,1.38-.57,1.39-.44,1.46-.31,1.39-.22,1.47-.18,1.51-.09,1.47.09,1.47.05-.8-1.02ZM23.39,11.99l-.22.13-.45.36-.44.61-.31.31-.36.18h-.4l-.4-.05-.49-.17-.4-.18-.35-.18-.27-.13-.31-.17v-.18l.18-.18.18-.3.22-.27.18-.31.17-.31.27-.3.27-.22.22-.18.35-.04h.54l.49.17.4.22.35.31.27.35.18.22.13.27.04.04h-.04ZM25,11.82l-.26-.22-.26-.26-.36-.31-.31-.34-.22-.35-.26-.35-.35-.21-.35-.22-.36-.17-.39-.09-.44.09-.4.04-.4.22-.13-.74.13-.09.31-.04.4-.05.44-.08.62.08.48.18.48.26.4.48.57.95.53.78.35.61-.22-.17Z"/>
    </g>
    <polygon class="cls-3" points="22.73 11.82 22.73 12.13 22.64 12.31 22.5 12.35 22.46 12.39 22.28 12.53 22.14 12.7 21.92 12.88 21.69 13.01 21.33 13.05 20.79 12.92 20.38 12.83 20.06 12.7 19.97 12.57 19.97 12.39 20.02 12.17 20.15 12 20.33 11.65 20.47 11.34 20.83 11.12 21.33 10.94 21.92 10.94 22.32 11.12 22.64 11.47 22.73 11.82"/>
    <polygon class="cls-4" points="22.73 11.82 22.73 12.13 22.64 12.31 22.5 12.35 22.46 12.39 22.28 12.53 22.14 12.7 21.92 12.88 21.69 13.01 21.33 13.05 20.79 12.92 20.38 12.83 20.06 12.7 19.97 12.57 19.97 12.39 20.02 12.17 20.15 12 20.33 11.65 20.47 11.34 20.83 11.12 21.33 10.94 21.92 10.94 22.32 11.12 22.64 11.47 22.73 11.82"/>
    <polygon class="cls-4" points="27.96 31.65 27.16 32.09 26.22 32.4 25.25 32.62 24.18 32.75 23.19 32.84 22.17 32.84 21.37 32.79 20.7 32.75 20.3 32.66 19.76 32.57 19.14 32.48 18.43 32.44 17.72 32.4 17.05 32.4 16.25 32.31 15.62 32.31 15 33.63 14.91 34.91 15.26 36.05 15.8 36.98 16.78 37.11 17.85 37.24 18.92 37.33 19.94 37.51 21.01 37.64 21.95 37.86 22.88 38.12 23.69 38.39 24.31 38.65 24.93 38.83 25.56 38.92 26.27 39.05 26.98 39.14 27.69 39.18 28.45 39.23 29.17 39.23 29.83 39.23 30.55 39.18 31.21 39.18 31.84 39.14 32.46 39.05 33 39.05 33.53 39.01 33.93 38.92 33.18 38.04 32.42 37.15 31.66 36.27 30.9 35.39 30.15 34.51 29.39 33.54 28.68 32.66 27.96 31.65"/>
    <path class="cls-6" d="M29.17,39.23h-.71l-.76-.04-.71-.04-.71-.09-.71-.13-.62-.09-.62-.18-.62-.26-.8-.27-.94-.26-.94-.22-1.07-.13-1.02-.18-1.07-.09-1.07-.13-.98-.13s0,0,0,0l-.54-.93-.36-1.15.09-1.28.62-1.33s0,0,0,0h.63l.8.09h.67l1.42.09.62.09.54.09.4.09.67.04.8.04h1.02l.98-.09,1.07-.13.98-.22.93-.31.8-.44s0,0,0,0l.71,1.01.71.88.76.97,3.79,4.41s0,0,0,0c0,0,0,0,0,0l-.4.09-.53.04h-.54l-.62.09-.62.04h-.67l-.71.04h-.67ZM15.8,36.97l.98.13,1.07.13,1.07.09,1.02.18,1.07.13.94.22.94.26.8.27.62.26.62.17.62.09.71.13.71.09.71.04.76.04h1.38l.71-.04h.67l.62-.04.62-.09h.54l.53-.04.39-.09-3.78-4.4-.76-.97-.71-.88-.71-1.01-.8.44-.94.31-.98.22-1.07.13-.98.09h-1.03l-.8-.04-.67-.04-.4-.09-.54-.09-.62-.09-1.42-.09h-.67l-.8-.09h-.62l-.62,1.32-.09,1.27.35,1.14.53.92Z"/>
    <polygon class="cls-4" points="99.71 47.26 99.71 47.3 99.6 47.25 99.58 47.24 99.71 47.26"/>
    <polygon class="cls-4" points="74.91 26.19 74.91 28.01 74.43 29.83 73.62 31.6 72.6 33.42 71.53 35.05 70.46 36.74 69.48 38.2 69.17 38.64 68.86 39.04 68.59 39.4 68.37 39.75 68.01 40.19 67.7 40.59 67.35 41.08 66.99 41.57 66.14 41.74 65.07 41.92 63.92 42.1 62.54 42.28 61.16 42.5 59.69 42.63 58.13 42.72 56.52 42.85 53.18 42.85 51.54 42.72 49.94 42.54 48.33 42.32 46.82 41.92 45.35 41.43 43.97 40.81 43.97 40.87 44.12 41.15 43.9 41.99 43.5 43.18 42.92 44.67 42.07 46.39 41.09 48.2 39.84 50.05 38.46 51.81 36.77 53.39 36.64 53.48 36.41 53.7 36.01 54.05 35.52 54.45 34.99 54.98 34.54 55.64 34.05 56.34 33.79 57.05 33.43 57.84 32.89 58.55 32.23 59.21 31.56 59.86 30.89 60.31 30.31 60.74 29.91 60.97 29.77 61.1 26.39 60.92 26.61 60.44 26.92 60.04 27.19 59.56 27.5 59.21 27.9 58.89 28.3 58.68 28.75 58.5 29.24 58.41 28.62 57.8 28.57 57.84 28.3 57.97 27.99 58.15 27.55 58.41 27.1 58.85 26.61 59.38 26.17 60.09 25.67 60.83 23.8 60.79 24.07 60.22 24.29 59.6 24.65 59.03 25.01 58.41 25.41 57.97 25.85 57.53 26.43 57.31 27.1 57.18 26.43 56.61 26.34 56.65 26.03 56.78 25.63 57.05 25.14 57.49 24.56 58.01 24.07 58.76 23.58 59.69 23.18 60.79 21.84 60.74 21.84 60.57 21.89 60.04 22.07 59.29 22.34 58.41 22.82 57.49 23.54 56.61 24.52 55.9 25.85 55.37 26.12 55.24 26.61 54.93 27.46 54.4 28.3 53.83 29.2 53.17 30.04 52.47 30.53 51.76 30.8 51.1 30.89 50.31 31.29 49.17 31.82 47.63 32.49 45.82 33.25 44.01 33.96 42.25 34.54 40.71 35.08 39.48 35.12 39.35 35.12 38.55 35.17 38.47 34.54 37.59 33.87 36.66 33.21 35.87 32.4 34.9 31.65 33.97 30.85 32.96 29.95 31.91 29.11 30.76 29.15 30.76 29.02 30.67 28.79 30.32 28.39 29.75 27.99 29.04 28.62 27.5 29.37 26.18 30.31 24.9 31.29 23.76 32.4 22.75 33.65 21.87 34.94 21.03 36.32 20.37 37.75 19.79 39.22 19.31 40.78 18.91 42.34 18.65 43.9 18.43 45.55 18.34 47.11 18.34 48.71 18.43 49.11 18.91 49.69 19.49 50.45 20.19 51.34 20.9 52.46 21.69 53.66 22.44 55.13 23.23 56.78 23.98 56.77 24.01 56.88 24.07 57.28 24.2 57.68 24.38 58.04 24.47 58.44 24.6 58.89 24.73 59.29 24.91 59.69 25 60.8 25.31 61.96 25.57 63.2 25.66 64.36 25.75 65.52 25.75 66.72 25.66 67.83 25.57 68.86 25.44 69.88 25.31 70.82 25.13 71.62 24.95 72.33 24.82 72.91 24.64 73.31 24.6 73.58 24.47 73.71 24.47 73.84 24.42 74.38 24.42 74.91 26.19"/>
    <polygon class="cls-4" points="9.3 32 8.69 32 7.94 32.09 7.1 32.22 6.36 32.4 5.65 32.66 5.08 33.01 4.68 33.45 4.46 34.01 4.33 34.98 4.33 35.85 4.59 36.59 4.99 37.25 5.26 36.42 5.65 35.76 6 35.19 6.44 34.8 6.75 34.41 7.06 34.19 7.24 34.06 7.28 34.01 7.98 34.54 7.54 34.67 7.06 34.98 6.71 35.24 6.36 35.68 6.14 36.07 5.92 36.59 5.74 37.07 5.61 37.6 5.65 37.64 5.78 37.64 5.96 37.73 6.09 37.73 6.75 37.64 7.63 37.55 8.56 37.42 9.48 37.2 10.36 37.03 11.07 36.9 11.51 36.77 11.68 36.72 11.73 36.72 11.81 36.72 11.99 36.72 12.21 36.72 12.52 36.72 12.83 36.72 13.27 36.77 13.66 36.77 13.27 35.19 13.14 33.97 13.27 33.01 13.66 32.31 13.18 32.27 12.65 32.22 12.08 32.22 11.51 32.14 10.93 32.09 10.36 32 9.79 32 9.3 32"/>
    <path class="cls-6" d="M5.96,37.74l-.18-.09h-.13s0,0,0,0l-.04-.04s0,0,0,0l.13-.52.18-.48.22-.53.22-.39.35-.44.35-.26.48-.31.43-.13-.69-.51-.04.04-.18.13-.31.22-.31.39-.44.39-.35.57-.4.65-.26.83s0,0,0,0h0s0,0,0,0l-.4-.66-.26-.74v-.88s.13-.96.13-.96l.22-.57.4-.44.57-.35.71-.26.75-.18.84-.13.75-.09h1.67l.57.09.57.04.57.09h.57l.53.04.48.04s0,0,0,0,0,0,0,0l-.4.7-.13.96.13,1.22.4,1.57s0,0,0,0c0,0,0,0,0,0h-.4l-.44-.04h-1.14l-.17.04-.44.13-.71.13-.88.17-.92.22-.93.13-.88.09-.66.09h-.13ZM5.65,37.63h.13l.18.09h.13s.66-.09.66-.09l.88-.09.93-.13.92-.22.88-.17.7-.13.44-.13.18-.04h1.15l.44.04h.39l-.39-1.56-.13-1.23.13-.96.39-.69-.47-.04-.53-.04h-.57l-.57-.09-.57-.04-.57-.09h-1.67l-.75.09-.84.13-.75.17-.7.26-.57.35-.4.44-.22.56-.13.96v.87l.26.74.39.64.26-.82.4-.66.35-.57.44-.39.31-.39.31-.22.18-.13.04-.04s0,0,0,0l.7.53s0,0,0,0c0,0,0,0,0,0l-.44.13-.48.31-.35.26-.35.44-.22.39-.22.53-.18.48-.13.52.04.04Z"/>
    <g>
      <polygon class="cls-4" points="90.39 29.8 89.99 29.68 90.2 30.19 90.25 30.55 90.34 30.72 90.43 30.9 90.73 31.52 91 32.4 91.31 33.5 91.49 35 91.36 36.67 90.96 38.53 90.07 40.6 90.07 40.69 89.98 40.87 89.89 41.08 89.85 41.39 89.8 41.79 89.85 42.27 89.98 42.76 90.2 43.29 90.6 43.82 91.18 44.39 91.93 44.92 92.96 45.45 94.16 46.02 95.71 46.46 97.58 46.9 99.12 47.16 99.38 47.2 99.58 47.24 99.6 47.25 99.71 47.3 99.86 47.38 100.2 47.6 100.6 48 100.94 48.52 101.24 49.14 101.42 50.02 101.42 52.48 101.53 53.93 101.75 55.43 102.05 56.88 102.35 58.11 102.57 59.16 102.79 59.91 102.82 60.13 102.82 60.35 102.68 60.88 102.31 61.49 101.53 62.02 101.27 62.06 100.97 62.2 100.6 62.24 100.2 62.37 99.72 62.41 99.23 62.5 98.75 62.54 98.2 62.59 98.38 62.2 98.6 61.71 98.9 61.36 99.12 60.97 99.42 60.66 99.75 60.44 100.16 60.31 100.53 60.26 100.05 59.65 100.01 59.73 99.83 59.78 99.53 60 99.16 60.31 98.79 60.66 98.35 61.18 97.98 61.84 97.57 62.59 97.38 62.59 97.2 62.68 95.98 62.68 96.12 62.06 96.35 61.49 96.61 60.88 96.94 60.31 97.27 59.78 97.72 59.38 98.2 59.12 98.75 58.99 98.23 58.41 98.16 58.46 97.9 58.63 97.57 58.9 97.12 59.29 96.64 59.91 96.2 60.66 95.75 61.54 95.42 62.68 94.94 62.59 94.61 62.54 94.35 62.41 94.27 62.33 94.2 61.4 94.31 60.52 94.5 59.65 94.9 58.9 95.5 58.2 96.2 57.67 97.2 57.32 98.38 57.18 98.23 56.88 97.98 56 97.53 54.42 97.09 52 97.3 51.8 97.27 51.8 96.91 51.84 94.6 51.84 93.53 51.8 92.38 51.66 91.09 51.49 89.71 51.22 88.38 50.87 87.05 50.38 85.62 49.77 84.38 49.06 83.09 48.18 81.89 47.17 80.87 45.93 81.22 44.48 81.4 42.98 81.4 41.52 81.27 40.02 80.96 38.62 80.51 37.25 79.85 35.93 79.05 34.69 79.04 34.54 78.95 34.57 78.73 34.61 78.5 34.79 78.19 34.96 77.97 35.14 77.75 35.27 77.52 35.36 77.34 35.45 78.01 36.38 78.68 37.39 79.22 38.45 79.62 39.6 79.88 40.7 80.06 41.85 80.06 43 80.02 44.14 79.97 44.01 79.84 43.92 79.79 43.79 79.71 43.61 79.71 43.83 79.62 44.54 79.44 45.51 79.08 46.75 78.55 48.07 77.79 49.35 76.81 50.54 75.47 51.56 75.33 51.6 74.98 51.74 74.53 51.96 73.91 52.27 73.33 52.62 72.75 53.1 72.35 53.63 72.12 54.2 72.21 54.6 72.48 55.62 72.39 56.77 71.81 57.52 71.46 57.69 71.01 57.96 70.43 58.22 69.76 58.66 69 59.06 68.2 59.5 67.35 59.94 66.5 60.43 65.66 60.92 64.9 61.31 64.14 61.75 63.47 62.11 62.98 62.46 62.54 62.68 62.31 62.81 62.22 62.85 57.49 62.85 57.76 62.5 57.99 62.15 58.61 61.53 58.92 61.31 59.32 61.14 59.68 61.09 60.08 61 59.5 60.38 59.46 60.43 59.28 60.47 58.97 60.65 58.61 60.92 58.21 61.27 57.76 61.66 57.36 62.2 56.92 62.85 54.82 62.85 55.04 62.33 55.35 61.8 55.62 61.27 55.98 60.78 56.38 60.38 56.87 60.07 57.4 59.85 57.99 59.77 57.36 59.11 57.23 59.19 57.01 59.28 56.56 59.59 56.11 59.94 55.57 60.43 55.04 61.09 54.59 61.93 54.1 62.85 53.66 62.85 53.53 62.64 53.35 62.11 53.3 61.27 53.39 60.38 53.93 59.5 55.04 58.66 56.87 58.13 59.55 57.87 66.82 54.51 66.77 54.07 66.64 52.84 66.64 50.77 67.13 47.98 67.49 46.44 67.71 45.2 67.93 44.1 68.2 43.17 68.42 42.47 68.65 41.85 69 41.36 69.49 40.92 69.63 40.7 70.25 40 71.05 38.94 72.04 37.53 73.15 35.85 74.22 33.99 75.29 32.01 76.14 29.89 76.58 28.43 76.72 27.02 76.72 25.48 76.49 23.75 77.16 23.67 77.83 23.58 78.64 23.53 79.4 23.53 80.15 23.58 80.91 23.67 81.71 23.75 82.47 23.84 82.43 23.91 82.78 23.94 83.27 24.07 83.72 24.15 84.2 24.29 84.65 24.46 85.05 24.64 85.49 24.86 85.8 25.12 86.52 25.67 87.8 25.82 90.17 26.35 91.19 26.57 92.12 26.75 92.97 26.84 93.68 26.84 94.13 26.75 94.53 26.66 94.8 26.57 94.85 26.57 96.58 25.87 97.88 24.81 98.81 23.57 99.48 22.2 99.84 20.97 100.06 19.82 100.1 19.11 100.1 18.85 100.06 17.83 99.88 16.46 99.52 14.87 98.95 13.2 98.01 11.47 96.67 9.93 94.85 8.65 92.57 7.63 91.64 7.41 90.7 7.15 89.76 7.06 88.83 6.93 87.8 6.93 86.87 6.97 85.93 7.1 84.99 7.28 84.06 7.59 83.17 7.94 82.32 8.38 81.47 8.96 80.67 9.53 79.91 10.24 79.2 11.08 78.49 11.96 77.95 12.84 77.55 13.99 77.15 15.23 76.75 16.46 76.35 17.66 75.86 18.76 75.28 19.6 74.57 20.22 74.03 20.44 73.45 20.57 72.83 20.66 72.29 20.75 71.8 20.79 71.04 20.79 70.28 20.75 69.75 20.57 69.44 20.26 69.17 19.91 69.13 19.55 69.17 19.2 69.3 18.89 69.53 18.67 69.66 18.54 69.84 18.4 70.02 18.32 70.24 18.23 70.51 18.14 70.82 18.05 71.22 18.01 72.47 18.01 73.05 17.88 73.4 17.7 73.67 17.48 73.85 17.3 73.94 17.13 73.99 16.99 73.99 16.95 74.21 16.24 74.48 15.4 74.7 14.39 74.96 13.33 75.32 12.27 75.81 11.12 76.35 9.93 76.97 8.87 77.64 8.12 78.4 7.41 79.2 6.75 80.18 6.13 81.25 5.69 82.36 5.2 83.52 4.85 84.73 4.54 85.98 4.37 87.22 4.19 88.47 4.15 89.67 4.19 90.92 4.28 92.08 4.46 93.15 4.72 94.18 5.07 96.98 6.53 99.17 8.16 100.68 9.93 101.75 11.74 102.38 13.46 102.73 14.92 102.91 16.11 103.05 16.82 103.22 18.01 103.27 19.6 103.05 21.36 102.55 23.35 101.71 25.29 100.46 27.06 98.63 28.47 96.32 29.49 94.85 29.8 93.51 29.97 92.26 29.97 91.28 29.93 90.39 29.8"/>
      <polygon class="cls-4" points="99.27 47.16 99.38 47.2 99.12 47.16 99.27 47.16"/>
      <polygon class="cls-4" points="99.58 47.24 99.38 47.2 99.53 47.2 99.58 47.24"/>
    </g>
    <g class="cls-7">
      <g>
        <path class="cls-1" d="M5.61,73.04h6.46v-3.98c0-.33,0-.59-.02-.8-.01-.21-.04-.38-.08-.51-.04-.13-.09-.24-.17-.32-.08-.08-.17-.15-.3-.22-.3-.16-.61-.25-.93-.25h-.49v-.38h5.96v.38h-.5c-.13,0-.27.01-.41.04s-.28.07-.41.13-.24.14-.34.23c-.1.09-.17.2-.22.33-.08.23-.11.68-.11,1.35v8.97c0,.33,0,.59.02.8.01.2.04.37.08.51.04.13.09.24.16.31.07.08.17.15.29.22.29.16.61.25.94.25h.49v.38h-5.95v-.38h.49c.56,0,.97-.17,1.24-.5.17-.21.26-.74.26-1.58v-4.23h-6.46v4.23c0,.33,0,.59.02.8.01.2.04.37.08.5.04.13.09.23.17.31.08.08.17.15.3.22.29.16.61.25.93.25h.5v.38H1.65v-.38h.49c.58,0,1-.17,1.25-.5.16-.21.25-.74.25-1.58v-8.97c0-.33,0-.59-.02-.8-.01-.21-.04-.38-.08-.51-.04-.13-.09-.24-.16-.32-.07-.08-.17-.15-.29-.22-.3-.16-.62-.25-.94-.25h-.49v-.38h5.96v.38h-.5c-.14,0-.28.01-.42.04-.14.03-.27.07-.4.13-.13.06-.24.14-.34.23-.1.09-.17.2-.22.33-.08.22-.12.67-.12,1.35v3.98Z"/>
        <path class="cls-1" d="M25.69,67.35v5.5h3.05c.44,0,.8-.04,1.08-.12.28-.08.49-.2.65-.37s.27-.38.33-.63c.06-.25.1-.55.12-.9h.38v4.84h-.38c-.05-.34-.1-.62-.14-.83-.05-.22-.1-.37-.14-.47-.06-.12-.14-.23-.24-.32-.1-.09-.22-.17-.37-.24s-.33-.12-.54-.15-.46-.05-.75-.05h-3.05v4.58c0,.61.03.98.08,1.13.03.06.06.12.1.17.04.05.1.1.18.14.08.04.18.07.31.09s.29.03.48.03h2.36c.4,0,.74-.01,1.01-.04.27-.02.51-.07.71-.12.2-.06.38-.14.53-.25.15-.11.32-.24.49-.41.21-.21.43-.47.65-.79.22-.32.44-.7.66-1.13h.41l-1.2,3.49h-10.71v-.38h.49c.13,0,.27-.01.41-.04s.28-.07.4-.13c.13-.06.24-.14.34-.23s.17-.2.21-.32c.08-.21.12-.66.12-1.34v-9.03c0-.88-.09-1.42-.27-1.63-.25-.27-.66-.41-1.23-.41h-.49v-.38h10.71v3.04h-.25c-.08-.37-.15-.67-.23-.91s-.16-.44-.26-.59c-.1-.16-.21-.28-.33-.37-.12-.09-.27-.18-.44-.25-.28-.1-.76-.15-1.45-.15h-3.81Z"/>
        <path class="cls-1" d="M58.64,66.59v.38c-.18,0-.35.02-.49.05-.14.03-.28.08-.39.15-.12.07-.23.17-.33.28s-.21.26-.31.44c-.13.23-.34.8-.65,1.71l-3.88,11.2h-.41l-3.17-8.89-3.15,8.89h-.37l-4.13-11.54c-.31-.87-.51-1.38-.58-1.53-.14-.26-.32-.45-.55-.58-.23-.13-.55-.19-.96-.19v-.38h5.15v.38h-.25c-.37,0-.65.08-.84.25-.19.16-.28.36-.28.59,0,.12.04.31.11.59.07.28.19.63.34,1.06l2.74,7.8,2.31-6.63-.74-2.1c-.11-.25-.22-.47-.33-.67-.11-.19-.24-.35-.39-.49-.15-.13-.32-.23-.51-.3-.19-.07-.43-.1-.7-.1v-.38h5.41v.38h-.37c-.39,0-.67.08-.85.24-.17.16-.26.38-.26.67,0,.35.15.96.46,1.83l2.67,7.55,2.65-7.66c.3-.86.45-1.45.45-1.76s-.14-.55-.43-.68c-.29-.13-.66-.19-1.11-.19v-.38h4.15Z"/>
        <path class="cls-1" d="M70.16,80.11v.38h-5.96v-.38h.49c.58,0,1-.17,1.25-.5.16-.21.25-.74.25-1.58v-8.98c0-.33,0-.59-.02-.8s-.04-.37-.08-.51c-.04-.13-.09-.24-.16-.31s-.17-.15-.29-.21c-.3-.16-.62-.25-.94-.25h-.49v-.38h5.96v.38h-.5c-.57,0-.99.17-1.24.5-.17.21-.26.74-.26,1.58v8.98c0,.33,0,.59.02.8.01.2.04.37.08.5.04.13.09.23.17.31.08.08.17.15.3.22.29.16.61.25.93.25h.5Z"/>
        <path class="cls-1" d="M87.67,66.59v3.26h-.24c-.05-.44-.15-.81-.27-1.11-.13-.3-.29-.55-.5-.74-.21-.19-.46-.32-.75-.41-.29-.08-.64-.13-1.03-.13h-1.96v10.62c0,.85.09,1.39.28,1.6.25.29.65.43,1.2.43h.48v.38h-5.89v-.38h.49c.59,0,1-.18,1.25-.53.15-.21.23-.71.23-1.5v-10.62h-1.67c-.42,0-.79.03-1.11.09s-.58.18-.8.35-.4.41-.53.73c-.14.31-.24.72-.31,1.22h-.39v-3.26h11.51Z"/>
        <path class="cls-1" d="M105.36,66.59v3.26h-.24c-.05-.44-.15-.81-.27-1.11-.13-.3-.29-.55-.5-.74-.21-.19-.46-.32-.75-.41-.29-.08-.64-.13-1.03-.13h-1.96v10.62c0,.85.09,1.39.28,1.6.25.29.65.43,1.2.43h.48v.38h-5.89v-.38h.49c.59,0,1-.18,1.25-.53.15-.21.23-.71.23-1.5v-10.62h-1.67c-.42,0-.79.03-1.11.09s-.58.18-.8.35-.4.41-.53.73c-.14.31-.24.72-.31,1.22h-.39v-3.26h11.51Z"/>
      </g>
      <g>
        <path class="cls-1" d="M10.59,82.13l.24,3.54h-.24c-.16-.53-.35-.98-.58-1.36-.23-.38-.49-.69-.78-.93s-.61-.42-.97-.53c-.35-.11-.74-.17-1.15-.17-.7,0-1.32.17-1.85.51s-.97.87-1.28,1.57c-.17.39-.31.83-.4,1.33-.09.5-.14,1.05-.14,1.67,0,.94.15,1.75.45,2.45.15.35.35.66.58.93.23.27.5.49.8.67.3.18.62.32.97.41.35.09.72.14,1.1.14.43,0,.8-.04,1.11-.13.31-.09.6-.22.85-.4.26-.18.5-.4.74-.68.24-.27.5-.59.79-.95l.24.15c-.26.46-.54.86-.85,1.2-.3.34-.63.62-.98.84-.35.22-.74.38-1.15.49-.41.1-.86.16-1.33.16-1.73,0-3.07-.64-4.01-1.92-.71-.95-1.06-2.08-1.06-3.37,0-.62.08-1.22.25-1.8.17-.58.43-1.12.78-1.61.25-.35.53-.66.84-.93.32-.27.66-.5,1.02-.69.37-.19.75-.33,1.16-.43.41-.1.82-.15,1.25-.15.75,0,1.5.18,2.23.55.22.12.38.17.46.17.16,0,.3-.07.41-.2s.19-.31.23-.52h.27Z"/>
        <path class="cls-1" d="M22.84,89.3h-4.04l-.71,1.65c-.17.4-.26.7-.26.91,0,.08.01.16.04.23s.09.13.17.19c.09.06.21.11.37.15.16.04.37.07.62.09v.28h-3.28v-.28c.43-.08.71-.18.85-.3.13-.12.27-.31.41-.56s.29-.56.46-.94l3.67-8.58h.27l3.63,8.67c.15.36.29.65.41.87.13.22.25.39.39.51.13.12.28.2.43.25.16.05.34.07.56.08v.28h-4.11v-.28c.2-.01.38-.03.51-.07s.25-.08.33-.14c.08-.06.14-.12.17-.19.03-.07.05-.15.05-.24,0-.11-.02-.26-.07-.43-.05-.18-.13-.39-.23-.63l-.63-1.5ZM22.62,88.73l-1.77-4.21-1.81,4.21h3.58Z"/>
        <path class="cls-1" d="M38.27,87.47c.43.09.79.22,1.09.38s.54.35.73.56c.19.21.33.45.42.71s.13.53.13.82c0,.26-.04.51-.13.77-.08.25-.21.49-.37.71-.16.22-.35.42-.58.61-.23.18-.49.33-.77.44-.57.22-1.44.32-2.61.32h-4.92v-.28h.39c.43,0,.74-.14.94-.42.12-.18.18-.56.18-1.15v-6.74c0-.64-.07-1.05-.22-1.22-.2-.23-.5-.34-.89-.34h-.39v-.28h4.5c.84,0,1.51.06,2.02.18.38.09.72.22,1.02.39.29.17.54.37.74.59.2.23.35.47.45.75s.15.56.15.87c0,.52-.16.99-.48,1.4-.32.41-.79.72-1.41.92ZM34.25,87.05c.39.07.87.11,1.45.11.75,0,1.31-.08,1.68-.24.19-.08.36-.19.5-.31.15-.13.27-.27.37-.43.1-.16.17-.33.22-.52s.08-.38.08-.58c0-.3-.06-.58-.19-.85-.13-.27-.31-.5-.56-.7-.25-.2-.55-.36-.92-.48-.36-.12-.78-.18-1.26-.18-.52,0-.98.06-1.38.17v4ZM34.25,92.03c.59.14,1.18.21,1.76.21.47,0,.88-.06,1.23-.17.36-.11.65-.27.9-.46.24-.2.42-.43.54-.69.12-.26.18-.55.18-.85,0-.33-.07-.64-.2-.93-.13-.29-.33-.54-.6-.75-.27-.21-.61-.38-1.01-.5-.41-.12-.89-.18-1.44-.18-.32,0-.6,0-.82.01-.22.01-.4.03-.54.05v4.27Z"/>
        <path class="cls-1" d="M50.38,92.5v.28h-4.47v-.28h.37c.44,0,.75-.13.94-.38.12-.16.18-.55.18-1.18v-6.74c0-.25,0-.45-.02-.6-.01-.15-.03-.28-.06-.38-.03-.1-.07-.18-.12-.24-.05-.06-.13-.11-.22-.16-.23-.12-.46-.18-.71-.18h-.37v-.28h4.47v.28h-.38c-.43,0-.74.13-.93.38-.13.16-.19.55-.19,1.18v6.74c0,.25,0,.45.02.6,0,.15.03.28.06.38.03.1.07.18.13.24.06.06.13.11.22.17.22.12.45.18.7.18h.38Z"/>
        <path class="cls-1" d="M54.55,82.36h2.83l6.37,7.82v-6.01c0-.64-.07-1.04-.22-1.2-.19-.22-.49-.32-.9-.32h-.36v-.28h3.63v.28h-.37c-.44,0-.75.13-.94.4-.11.16-.17.53-.17,1.12v8.79h-.28l-6.87-8.4v6.42c0,.64.07,1.04.21,1.2.19.22.49.32.9.32h.37v.28h-3.63v-.28h.36c.45,0,.76-.13.95-.4.11-.16.17-.53.17-1.12v-7.25c-.15-.18-.28-.32-.38-.43-.1-.11-.2-.2-.29-.26-.09-.07-.19-.13-.3-.17-.11-.04-.24-.09-.4-.15-.15-.05-.37-.07-.68-.07v-.28Z"/>
        <path class="cls-1" d="M73.42,82.93v4.12h2.29c.33,0,.6-.03.81-.09.21-.06.37-.15.49-.28.12-.12.2-.28.25-.47s.08-.42.09-.68h.29v3.63h-.29c-.04-.26-.07-.46-.11-.63-.04-.16-.07-.28-.11-.35-.05-.09-.11-.17-.18-.24-.07-.07-.16-.13-.28-.18-.11-.05-.25-.09-.41-.12-.16-.03-.35-.04-.56-.04h-2.29v3.44c0,.46.02.74.06.85.02.05.05.09.08.13.03.04.08.08.13.1.06.03.14.05.23.07s.21.02.36.02h1.77c.3,0,.55,0,.76-.03.2-.02.38-.05.53-.09.15-.04.29-.1.4-.18.12-.08.24-.18.37-.3.16-.15.32-.35.48-.59.16-.24.33-.52.49-.85h.31l-.9,2.61h-8.03v-.28h.37c.1,0,.2-.01.31-.03.11-.02.21-.05.3-.1s.18-.1.26-.17.13-.15.16-.24c.06-.16.09-.5.09-1.01v-6.77c0-.66-.07-1.06-.2-1.22-.18-.21-.49-.31-.92-.31h-.37v-.28h8.03v2.28h-.18c-.06-.28-.11-.5-.17-.68-.06-.18-.12-.33-.19-.45-.07-.12-.15-.21-.25-.28-.09-.07-.2-.13-.33-.19-.21-.08-.57-.12-1.08-.12h-2.86Z"/>
        <path class="cls-1" d="M92.87,82.36v2.44h-.18c-.04-.33-.11-.61-.2-.83-.09-.23-.22-.41-.37-.55-.15-.14-.34-.24-.56-.31-.22-.06-.48-.1-.77-.1h-1.47v7.96c0,.64.07,1.04.21,1.2.19.22.49.32.9.32h.36v.28h-4.42v-.28h.37c.44,0,.75-.13.94-.4.11-.16.17-.53.17-1.12v-7.96h-1.25c-.32,0-.59.02-.83.07-.24.05-.44.13-.6.26-.16.13-.3.31-.4.55-.1.24-.18.54-.23.91h-.29v-2.44h8.63Z"/>
        <path class="cls-1" d="M104.61,82.13v3.61h-.28c-.09-.69-.26-1.24-.5-1.65-.12-.2-.26-.39-.44-.55s-.37-.3-.58-.42c-.21-.12-.43-.21-.66-.27-.23-.06-.47-.1-.7-.1-.26,0-.5.04-.73.13-.23.09-.42.21-.59.36-.17.15-.3.32-.39.51-.09.19-.14.39-.14.6,0,.29.07.54.2.75s.32.41.55.59.51.35.82.52c.32.17.66.35,1.03.55.42.22.81.44,1.18.65.37.21.7.44.99.7.29.25.51.54.68.87.17.33.25.72.25,1.17,0,.39-.08.76-.24,1.11-.16.35-.39.66-.68.92-.29.26-.64.47-1.04.63s-.84.23-1.33.23c-.18,0-.33,0-.46,0s-.25-.02-.37-.03c-.12-.02-.24-.05-.37-.08-.13-.04-.28-.09-.45-.16-.12-.05-.25-.09-.38-.13s-.25-.07-.35-.1c-.11-.03-.2-.05-.27-.06-.07-.01-.12-.02-.14-.02-.13,0-.23.04-.3.12-.08.08-.13.24-.17.48h-.28v-3.58h.28c.07.38.15.7.23.98.09.28.19.51.3.7.11.18.26.36.44.52s.38.3.6.41.46.21.72.27c.26.06.52.1.8.1.32,0,.61-.05.87-.14.26-.09.47-.22.65-.37.18-.16.32-.34.41-.54.09-.21.14-.42.14-.65,0-.33-.07-.61-.21-.84-.14-.23-.32-.43-.56-.61-.23-.18-.5-.35-.81-.51-.31-.16-.64-.35-.98-.55-.39-.23-.76-.45-1.13-.66s-.68-.44-.96-.68c-.28-.25-.5-.53-.67-.85-.17-.32-.25-.7-.25-1.14,0-.37.08-.72.23-1.05.15-.33.37-.62.64-.88.27-.25.59-.45.96-.6.37-.15.78-.22,1.22-.22.54,0,1.13.14,1.76.41.28.13.48.19.61.19s.24-.04.33-.12c.08-.08.15-.24.2-.48h.28Z"/>
      </g>
    </g>
    <rect class="cls-5" width="107.07" height="94.82"/>
    <path class="cls-6" d="M105.58,65.28H1.48V1.9h104.1v63.38ZM2.8,63.96h101.46V3.22H2.8v60.74Z"/>
  </g>
</svg>