<?xml version="1.0" encoding="UTF-8"?>
<svg id="Layer_2" data-name="Layer 2" xmlns="http://www.w3.org/2000/svg" viewBox="0 0 99.99 101.51">
  <defs>
    <style>
      .cls-1 {
        fill: #ffd042;
      }
    </style>
  </defs>
  <g id="Layer_1-2" data-name="Layer 1">
    <path class="cls-1" d="M50,0C22.43,0,0,22.76,0,50.75s22.43,50.76,50,50.76,49.99-22.77,49.99-50.76S77.56,0,50,0ZM94.15,33.68c-13.16,7.65-22.4,21.27-27.87,31.49-5.03,9.37-7.82,17.44-8.71,20.18h-1.82c-.56-1.8-1.91-5.88-4.27-11.37,5.78-13.23,17.23-34.04,37.18-50.78,2.24,3.22,4.09,6.74,5.49,10.48ZM51.51,29.47c6.56.18,12.63,3.32,18.05,9.36-2.41,2.99-4.63,5.98-6.65,8.93-3.6-5.38-7.66-8.15-12.08-8.21-.06,0-.11,0-.17,0-6.29,0-11.35,5.49-13.55,8.32-2.13-3.1-4.47-6.24-7.03-9.38,2.68-2.4,11.27-9.29,21.43-9.01ZM28.31,36.36c-2.09-2.47-4.32-4.92-6.7-7.33,1.33-1.24,4.01-3.57,7.69-5.89,5.33-3.37,12.77-6.72,21.23-6.72,9.69,0,18.9,4.38,27.38,13.02-2.34,2.39-4.53,4.81-6.58,7.25-5.88-6.42-12.52-9.78-19.75-9.97-.23-.01-.45-.01-.68-.01-10.8,0-19.61,6.98-22.59,9.65ZM50.66,42.29h.13c3.7.07,7.22,2.73,10.45,7.95-4.88,7.43-8.57,14.49-11.26,20.36-2.68-5.86-6.37-12.91-11.25-20.32,1.5-2.05,6.29-7.99,11.93-7.99ZM50,2.75c14.99,0,28.37,7.13,37.04,18.23-2.53,2.11-4.92,4.29-7.19,6.5-4.34-4.41-8.88-7.78-13.59-10.09-5.06-2.47-10.31-3.72-15.73-3.72-15.52,0-27.47,10.17-30.89,13.42-2.13-2.06-4.37-4.09-6.73-6.05C21.57,9.91,34.97,2.75,50,2.75ZM11.29,23.26c19.93,16.71,31.4,37.49,37.2,50.71-2.35,5.49-3.7,9.58-4.25,11.38h-1.81c-.89-2.74-3.68-10.81-8.69-20.18-5.48-10.24-14.71-23.9-27.88-31.53,1.39-3.7,3.22-7.18,5.43-10.38ZM2.76,51.46c4.78,3.5,16.94,14.65,24.08,41.12C12.66,84.45,3.01,69.09,2.76,51.46ZM50,98.76c-7.09,0-13.83-1.59-19.87-4.46C21.98,61.63,6.59,50.47,2.82,48.16c.21-4.11.94-8.09,2.13-11.87,24.16,14.38,35.04,50.46,35.15,50.82l.29.99h5.93l.27-1.02c.04-.11,1.06-3.77,3.4-9.56,2.36,5.79,3.38,9.45,3.41,9.57l.27,1.01h5.94l.29-.98c.11-.37,10.99-36.37,35.16-50.78,1.17,3.76,1.89,7.72,2.11,11.8-3.89,2.3-20.06,13.59-28.6,46.75-5.7,2.49-11.98,3.87-18.57,3.87ZM71.84,93.31c7.52-27.15,20.45-38.45,25.39-41.9-.24,18.19-10.49,33.97-25.39,41.9Z"/>
  </g>
</svg>