<?xml version="1.0" encoding="UTF-8"?>
<svg id="Layer_2" data-name="Layer 2" xmlns="http://www.w3.org/2000/svg" viewBox="0 0 199.86 75.98">
  <defs>
    <style>
      .cls-1 {
        fill: #fff;
      }

      .cls-2 {
        fill: #32689c;
      }
    </style>
  </defs>
  <g id="Layer_1-2" data-name="Layer 1">
    <g>
      <rect class="cls-1" x=".5" y="37.23" width="45.99" height="38.25"/>
      <rect class="cls-1" x="51.43" y="37.23" width="45.99" height="38.25"/>
      <rect class="cls-1" x="153.46" y="37.23" width="45.99" height="38.25"/>
      <rect class="cls-1" x="102.5" y="37.23" width="45.99" height="38.25"/>
      <g>
        <polygon class="cls-2" points="125.44 60.19 143.48 75.15 107.4 75.15 125.44 60.19"/>
        <path class="cls-2" d="M144.87,75.65h-38.86l19.43-16.11,19.43,16.11ZM108.78,74.65h33.31l-16.66-13.81-16.66,13.81Z"/>
      </g>
      <g>
        <polygon class="cls-2" points="121.25 56.72 102.88 73.14 102.88 40.31 121.25 56.72"/>
        <path class="cls-2" d="M102.38,74.27v-35.09l19.64,17.54-19.64,17.54ZM103.39,41.44v30.57l17.11-15.29-17.11-15.29Z"/>
      </g>
      <g>
        <polygon class="cls-2" points="130.2 56.31 148.1 39.9 148.1 72.73 130.2 56.31"/>
        <path class="cls-2" d="M148.6,73.86l-19.14-17.55,19.14-17.55v35.1ZM130.94,56.31l16.66,15.28v-30.56l-16.66,15.28Z"/>
      </g>
      <g>
        <polygon class="cls-2" points="125.44 52.52 107.4 37.56 143.48 37.56 125.44 52.52"/>
        <path class="cls-2" d="M125.44,53.17l-19.43-16.11h38.86l-19.43,16.11ZM108.78,38.06l16.66,13.81,16.66-13.81h-33.31Z"/>
      </g>
      <rect x=".39" y="75.37" width="46.14" height=".23"/>
      <path d="M97.9,75.98h-46.81v-39.01h46.81v39.01ZM52.09,74.98h44.81v-37.01h-44.81v37.01Z"/>
      <path d="M199.86,75.98h-46.81v-39.01h46.81v39.01ZM154.06,74.98h44.81v-37.01h-44.81v37.01Z"/>
      <path d="M148.6,75.98h-46.22v-39.01h46.22v39.01ZM103.38,74.98h44.22v-37.01h-44.22v37.01Z"/>
      <rect x=".39" y="37.13" width="46.14" height=".23"/>
      <rect x="46.29" y="37.13" width=".23" height="38.46"/>
      <rect x="102.37" y="37.13" width="46.14" height=".23"/>
      <rect x="153.36" y="37.13" width="46.14" height=".23"/>
      <g>
        <path class="cls-1" d="M13.35,4.36c0,3.01-1.72,4.57-5.77,4.57h-3.68v6.29H.46V.26h7.13c4.04,0,5.77,1.13,5.77,4.1ZM9.6,4.08c0-1.5-.77-2.12-2.01-2.12h-3.68v5.26h3.68c1.24,0,2.01-.71,2.01-2.2v-.94Z"/>
        <path class="cls-1" d="M27.8,10.18c0,2.74-1.07,5.3-5.54,5.3s-6.27-2.56-6.27-5.32V.26h3.44v9.9c0,2.74,1.58,3.59,3.51,3.59,1.82,0,3.42-.85,3.42-3.57V.26h1.43v9.92Z"/>
        <path class="cls-1" d="M43.81,7.23v8.19h-.38l-1.82-1.18c-.9.68-2.2,1.24-3.91,1.24-3.82,0-7.21-2.82-7.21-7.76s3.39-7.72,7.44-7.72c1.98,0,4.04.77,5.2,2.24l-.88,1.37h-.31c-.91-1.33-2.44-1.9-4.01-1.9-2.12,0-3.65,1.15-3.65,4.02v4.02c0,2.86,1.53,4.02,3.43,4.02,1,0,1.89-.28,2.67-.77v-4.06h-2.84l.6-1.71h5.68Z"/>
        <path class="cls-1" d="M47.37.26h10.19l.6,1.71h-7.32v4.57h5.42v1.71h-5.42v5.26h7.83l-.6,1.71h-10.71V.26Z"/>
        <path class="cls-1" d="M67.8,1.97v13.25h-3.42V1.97h-4.85l.62-1.71h11.91l.6,1.71h-4.85Z"/>
        <path class="cls-1" d="M79.34,13.45l.84-1.65h.33c1.03,1.07,2.77,1.99,4.97,1.99,2.03,0,3.13-.71,3.13-2.03,0-3.51-8.59-1.62-8.57-7.14.02-2.69,2.1-4.62,6.11-4.62,1.91,0,3.87.47,5.15,1.54l-.72,1.67h-.31c-.9-.94-2.39-1.5-4.11-1.5-2.15,0-2.93.66-2.93,1.65,0,2.93,8.88,1.39,8.88,7.2,0,3.46-2.93,4.94-6.63,4.94-2.5,0-4.7-.79-6.15-2.05Z"/>
        <path class="cls-1" d="M93.9,7.74c0-4.98,3.12-7.74,7.19-7.74s7.18,2.76,7.18,7.74-3.1,7.74-7.18,7.74-7.19-2.78-7.19-7.74ZM104.51,10.13v-4.79c0-2.59-1.29-3.63-3.41-3.63s-3.41,1.05-3.41,3.63v4.79c0,2.59,1.29,3.63,3.41,3.63s3.41-1.05,3.41-3.63Z"/>
        <path class="cls-1" d="M122.75,10.18c0,2.74-1.07,5.3-5.54,5.3s-6.27-2.56-6.27-5.32V.26h3.44v9.9c0,2.74,1.58,3.59,3.51,3.59,1.82,0,3.42-.85,3.42-3.57V.26h1.43v9.92Z"/>
        <path class="cls-1" d="M138,.26v14.96h-1.48l-8.73-11.91v11.91h-1.48V.26h3.91l6.32,8.68V.26h1.46Z"/>
        <path class="cls-1" d="M147.75.26c4.41,0,6.94,2.65,6.94,7.48s-2.53,7.48-6.94,7.48h-6.2V.26h6.2ZM145,1.97v11.54h2.75c2.1,0,3.2-1,3.2-3.83v-3.98c0-2.74-1.1-3.74-3.2-3.74h-2.75Z"/>
      </g>
      <g>
        <path class="cls-1" d="M17.07,18.51v14.96h-3.44v-11.8l-5.37,11.8h-.98L1.94,21.72v11.76H.46v-14.96h3.96l4.53,9.94,4.51-9.94h3.61Z"/>
        <path class="cls-1" d="M28.84,30.78h-6.82l-1.12,2.69h-1.62l6.23-14.96h2.07l6.23,14.96h-3.86l-1.12-2.69ZM28.13,29.07l-2.7-6.5-2.7,6.5h5.4Z"/>
        <path class="cls-1" d="M45.06,33.48l-2.77-6.29h-2.82v6.29h-3.44v-14.96h7.13c4.04,0,5.77,1.13,5.77,4.1,0,2.18-.9,3.59-2.91,4.21l3.37,6.65h-4.32ZM39.47,25.48h3.68c1.24,0,2.01-.71,2.01-2.2v-.94c0-1.5-.77-2.12-2.01-2.12h-3.68v5.26Z"/>
        <path class="cls-1" d="M51.88,18.51h3.44v14.96h-3.44v-14.96Z"/>
        <path class="cls-1" d="M70.57,18.51v14.96h-1.48l-8.73-11.91v11.91h-1.48v-14.96h3.91l6.32,8.68v-8.68h1.46Z"/>
        <path class="cls-1" d="M74.13,18.51h10.19l.6,1.71h-7.32v4.57h5.42v1.71h-5.42v5.26h7.83l-.6,1.71h-10.71v-14.96Z"/>
        <path class="cls-1" d="M92.6,31.7l.84-1.65h.33c1.03,1.07,2.77,1.99,4.97,1.99,2.03,0,3.13-.71,3.13-2.03,0-3.51-8.59-1.62-8.57-7.14.02-2.69,2.1-4.62,6.11-4.62,1.91,0,3.87.47,5.15,1.54l-.72,1.67h-.31c-.9-.94-2.39-1.5-4.11-1.5-2.15,0-2.93.66-2.93,1.65,0,2.93,8.88,1.39,8.88,7.2,0,3.46-2.93,4.94-6.63,4.94-2.5,0-4.7-.79-6.14-2.05Z"/>
        <path class="cls-1" d="M108.03,18.51h10.19l.6,1.71h-7.31v4.57h5.42v1.71h-5.42v5.26h7.83l-.6,1.71h-10.71v-14.96Z"/>
        <path class="cls-1" d="M131.04,33.48l-2.77-6.29h-2.82v6.29h-3.44v-14.96h7.13c4.04,0,5.77,1.13,5.77,4.1,0,2.18-.9,3.59-2.91,4.21l3.37,6.65h-4.32ZM125.45,25.48h3.68c1.24,0,2.01-.71,2.01-2.2v-.94c0-1.5-.77-2.12-2.01-2.12h-3.68v5.26Z"/>
        <path class="cls-1" d="M150.65,18.51l-6.23,14.96h-2.05l-6.25-14.96h3.89l4.53,10.86,4.49-10.86h1.62Z"/>
        <path class="cls-1" d="M152.85,18.51h3.44v14.96h-3.44v-14.96Z"/>
        <path class="cls-1" d="M158.97,25.97c0-4.96,3.39-7.72,7.44-7.72,1.98,0,3.99.77,5.2,2.24l-.88,1.37h-.31c-1.03-1.33-2.44-1.9-4.01-1.9-2.12,0-3.65,1.15-3.65,4.02v4.02c0,2.86,1.53,4.02,3.65,4.02,1.46,0,3.01-.53,4.08-1.77h.31l.81,1.24c-1.38,1.48-3.22,2.25-5.2,2.25-4.04,0-7.44-2.82-7.44-7.76Z"/>
        <path class="cls-1" d="M173.81,18.51h10.19l.6,1.71h-7.32v4.57h5.42v1.71h-5.42v5.26h7.83l-.6,1.71h-10.71v-14.96Z"/>
        <path class="cls-1" d="M186.59,31.7l.84-1.65h.33c1.03,1.07,2.77,1.99,4.97,1.99,2.03,0,3.13-.71,3.13-2.03,0-3.51-8.59-1.62-8.57-7.14.02-2.69,2.1-4.62,6.11-4.62,1.91,0,3.87.47,5.15,1.54l-.72,1.67h-.31c-.9-.94-2.39-1.5-4.11-1.5-2.15,0-2.93.66-2.93,1.65,0,2.93,8.88,1.39,8.88,7.2,0,3.46-2.93,4.94-6.63,4.94-2.5,0-4.7-.79-6.15-2.05Z"/>
      </g>
      <g>
        <rect class="cls-2" x="63.91" y="49.49" width="21.05" height="14.47"/>
        <path class="cls-2" d="M85.45,64.46h-22.05v-15.47h22.05v15.47ZM64.41,63.46h20.05v-13.47h-20.05v13.47Z"/>
      </g>
      <path d="M46.99,75.98H0v-39.26h46.99v39.26ZM1,74.98h44.99v-37.26H1v37.26Z"/>
      <path class="cls-2" d="M.5,37.23v38.26h45.99v-38.26H.5ZM33.03,62.81H12.64v-12.83h20.39v12.83Z"/>
      <path d="M46.99,75.98H0v-39.26h46.99v39.26ZM1,74.98h44.98v-37.25H1v37.25ZM33.53,63.31H12.14v-13.83h21.39v13.83ZM13.15,62.31h19.39v-11.83H13.15v11.83Z"/>
      <g>
        <rect class="cls-2" x="165.74" y="49.49" width="21.05" height="14.47"/>
        <path class="cls-2" d="M187.29,64.46h-22.04v-15.47h22.04v15.47ZM166.24,63.46h20.04v-13.47h-20.04v13.47Z"/>
      </g>
    </g>
  </g>
</svg>