<?xml version="1.0" encoding="UTF-8"?>
<svg id="Layer_2" data-name="Layer 2" xmlns="http://www.w3.org/2000/svg" viewBox="0 0 189.54 53.86">
  <defs>
    <style>
      .cls-1 {
        fill: #fff;
      }

      .cls-2 {
        fill: #ce202f;
      }
    </style>
  </defs>
  <g id="Layer_1-2" data-name="Layer 1">
    <g>
      <rect class="cls-1" x="10.6" y="5.14" width="169.51" height="46.17" rx="8.94" ry="8.94"/>
      <path class="cls-2" d="M158,14.86h5.23s2.04-.16,2.01,2.47c-.03,2.63-2.7,3.19-2.7,3.19h-5.46l.92-5.65Z"/>
      <path class="cls-2" d="M182.59,1.24c-1.99-.85-4.15-1.24-6.33-1.24H20.95C7.64.4,5.33,11.61,5.33,11.61c0,0-3.37,17.43-5.08,27.71-1.11,6.65,1.69,10.27,4.56,12.19,2.1,1.42,4.61,2.09,7.14,2.1,17.24.03,138.66.25,154.1.25,16.64,0,19.47-13.86,19.47-13.86,0,0,2.63-14.36,3.93-26.72.76-7.21-3.32-10.53-6.85-12.04ZM43.11,15.39l-16.44,15.34h13.66l-1.23,8.43H13.18l1.18-7.52L31.03,15.48l-12.57.07,1.83-8.51h23.87l-1.04,8.34ZM67.98,49.11c-.56,0-1.18-.16-1.49-.37l.19-.63c.33.21.83.38,1.35.38.77,0,1.23-.41,1.23-1,0-.54-.32-.85-1.1-1.16-.95-.34-1.55-.84-1.55-1.66,0-.91.76-1.58,1.89-1.58.59,0,1.03.14,1.29.28l-.2.62c-.19-.11-.58-.28-1.11-.28-.79,0-1.1.48-1.1.87,0,.54.35.82,1.16,1.13.99.38,1.49.86,1.49,1.72s-.67,1.68-2.04,1.68ZM57.96,40c-10.18-.25-13.57-4.79-12.62-11.59.93-6.8,3.99-21.35,3.99-21.35h9.27l-3.6,17.78s-1.83,6.06,2.46,7.03c4.29.96,5.55-5.32,5.55-5.32l3.75-19.48h8.88l-4.9,24.04s-2.59,9.15-12.77,8.9ZM73.54,49.02h-.75v-5.84h.75v5.84ZM80.98,49.02h-.76l-1.86-2.97c-.41-.65-.8-1.32-1.1-1.95h-.02c.04.75.06,1.45.06,2.42v2.5h-.71v-5.84h.82l1.88,2.96c.43.69.77,1.3,1.05,1.9h.02c-.07-.79-.09-1.5-.09-2.41v-2.45h.71v5.84ZM86.72,48.48c.46,0,.93-.09,1.23-.24l.15.6c-.28.14-.83.27-1.54.27-1.65,0-2.89-1.04-2.89-2.95s1.24-3.07,3.05-3.07c.73,0,1.19.15,1.39.26l-.19.61c-.28-.14-.69-.24-1.18-.24-1.37,0-2.28.88-2.28,2.41,0,1.43.82,2.35,2.25,2.35ZM94.07,49.02h-3.29v-5.84h3.16v.64h-2.4v1.85h2.27v.63h-2.27v2.11h2.53v.63ZM94.72,39.18c.07-.07-6.78,0-6.78,0l-.81-21.45-4.09,21.45h-8.93l6.85-32.13,12.33.17.22,16.43,7.77-16.43,13.09-.05-6.09,31.89-8.46.12,4.11-21.53c-.28.64-9.22,21.43-9.22,21.53ZM102.48,49.02h-.74v-4.92h-.02l-.98.53-.15-.58,1.23-.66h.65v5.63ZM109.05,48.32c-.43.42-1.03.68-1.63.75-.28.04-.53.06-.71.04v-.62c.17.01.35,0,.61-.03.45-.06.86-.24,1.18-.54.37-.34.64-.83.74-1.5h-.02c-.31.38-.76.61-1.32.61-1.02,0-1.67-.76-1.67-1.73,0-1.06.77-2,1.93-2s1.86.93,1.86,2.37c0,1.24-.41,2.11-.97,2.65ZM116.32,47.49h-.79v1.54h-.72v-1.54h-2.62v-.5l2.51-3.6h.82v3.5h.79v.59ZM122.29,43.89l-2.45,5.13h-.79l2.45-4.98v-.02h-2.76v-.63h3.55v.5ZM132.19,38.8l-.95-4.64-9.14.07-2.46,4.95h-8.61l16.24-31.98,9.17-.15,4.57,31.74h-8.81ZM171.78,28.34c-.26,3.68-.66,10.55-.66,10.55h-9.31l.89-8.22s.59-2.8-2.37-2.76c-2.96.03-5.1-.04-5.1-.04l-2.2,11.3h-8.81l5.96-32.13,18.3.3s5.82-.11,5.82,8.33c0,5.44-4.98,8.14-4.98,8.14,0,0,2.71.84,2.45,4.53Z"/>
      <polygon class="cls-2" points="125.09 27.58 129.76 18.11 131.15 27.56 125.09 27.58"/>
      <path class="cls-2" d="M109.25,45.57c0,.12-.02.21-.07.28-.2.33-.59.59-1.11.59-.66,0-1.08-.5-1.08-1.19,0-.8.46-1.37,1.11-1.37.8,0,1.15.74,1.15,1.7Z"/>
      <path class="cls-2" d="M114.83,44.13c-.02.3-.02.59-.02.89v1.88h-1.85v-.02l1.37-1.92c.15-.26.3-.5.47-.83h.02Z"/>
    </g>
  </g>
</svg>