<?xml version="1.0" encoding="UTF-8"?>
<svg id="Layer_1" xmlns="http://www.w3.org/2000/svg" version="1.1" viewBox="0 0 800 800">
  <!-- Generator: Adobe Illustrator 29.4.0, SVG Export Plug-In . SVG Version: 2.1.0 Build 152)  -->
  <defs>
    <style>
      .st0 {
        fill: #fff;
      }
    </style>
  </defs>
  <path class="st0" d="M557.9,242.1h142.1v315.8h-142.1V242.1ZM242.1,700h315.8v-142.1H242.1v142.1ZM557.9,242.1V100H147.4c-26.2,0-47.4,21.2-47.4,47.3,0,0,0,0,0,0v410.5h142.1V242.1h315.8ZM377.7,398.3v-1.6c6.8-3.6,12.5-8.7,17.2-15.4s7-14.9,7-24.6-2.5-18-7.5-25.6c-5.2-7.7-12.4-13.9-20.8-17.8-9.4-4.4-19.6-6.6-29.9-6.4-15,0-27.3,3.9-37,11.7-9.7,7.8-16.3,16.8-19.8,27l27.1,11.3c2.2-6.2,5.6-11.5,10.3-15.8s11.1-6.4,19.2-6.4,15.1,2.2,20.4,6.6c5.3,4.3,8.3,10.8,8,17.6,0,8.2-3,14.7-9,19.4-6,4.7-13.4,7.1-22.1,7.1h-14.2v27.1h15.8c10.2,0,18.7,2.7,25.5,8.2,6.8,5.5,10.2,12.5,10.2,21.1s-3.2,15.4-9.7,20.8-14.1,8.2-23.1,8.2-16.3-2.6-22.4-7.8c-6.2-5.2-10.5-12.5-13-22l-27.4,11.3c4.4,15.4,12.6,27,24.4,35,11.8,8,24.6,11.9,38.5,11.9,11.2.2,22.3-2.3,32.3-7.3,9.5-4.8,17.1-11.5,22.6-19.8,5.5-8.4,8.2-18,8.2-28.7s-2.9-19.9-8.6-27.6c-5.6-7.7-13.2-13.6-22-17.2h0ZM430,350.1l15.1,22.8,29.9-21.8v143.6h29.7v-183.6h-20.7l-53.9,38.9h0ZM652.6,100h-82.2v129.6h129.6v-82.2c0-26.2-21.2-47.4-47.3-47.4,0,0,0,0,0,0ZM570.4,687.5l117.1-117.1h-117.1v117.1ZM100,652.6c0,26.2,21.2,47.4,47.4,47.4h82.2v-129.6H100v82.2Z"/>
</svg>