<?xml version="1.0" encoding="UTF-8"?>
<svg id="Camada_1" xmlns="http://www.w3.org/2000/svg" version="1.1" viewBox="0 0 800 800">
  <!-- Generator: Adobe Illustrator 29.4.0, SVG Export Plug-In . SVG Version: 2.1.0 Build 152)  -->
  <defs>
    <style>
      .st0 {
        fill: #fff;
      }
    </style>
  </defs>
  <path class="st0" d="M532.5,242.5c-15,0-30,12.5-30,30s12.5,30,30,30,30-12.5,30-30c-2.5-17.5-15-30-30-30Z"/>
  <path class="st0" d="M400,280c-67.5,0-122.5,55-122.5,122.5s55,122.5,122.5,122.5,122.5-55,122.5-122.5c2.5-67.5-52.5-122.5-122.5-122.5ZM400,482.5c-42.5,0-80-35-80-80s35-80,80-80,80,35,80,80-35,80-80,80Z"/>
  <path class="st0" d="M500,150h-200c-82.5,0-150,67.5-150,150v200c0,82.5,67.5,150,150,150h200c82.5,0,150-67.5,150-150v-200c0-82.5-67.5-150-150-150ZM602.5,500c0,57.5-47.5,102.5-102.5,102.5h-200c-57.5,0-102.5-47.5-102.5-102.5v-200c0-57.5,47.5-102.5,102.5-102.5h200c57.5,0,102.5,47.5,102.5,102.5v200Z"/>
</svg>